<?xml version="1.0" encoding="UTF-8"?>
<svg id="Capa_2" data-name="Capa 2" xmlns="http://www.w3.org/2000/svg" viewBox="0 0 745.92 331.92">
  <defs>
    <style>
      .cls-1 {
        fill: #50535a;
      }
    </style>
  </defs>
  <g id="Capa_1-2" data-name="Capa 1">
    <g>
      <g>
        <rect class="cls-1" x="340.5" y="257" width="1.44" height="10.99"/>
        <path class="cls-1" d="m344.91,267.98v-10.99h1.56l3.51,5.56c.8,1.29,1.46,2.45,1.96,3.57l.05-.02c-.13-1.46-.16-2.8-.16-4.52v-4.6h1.34v10.99h-1.44l-3.49-5.58c-.77-1.22-1.5-2.48-2.04-3.67l-.05.02c.08,1.39.1,2.71.1,4.54v4.69h-1.34Z"/>
        <path class="cls-1" d="m355.95,266.26c.63.41,1.55.71,2.52.71,1.46,0,2.3-.76,2.3-1.88,0-1-.59-1.61-2.07-2.16-1.79-.65-2.91-1.6-2.91-3.13,0-1.71,1.42-2.98,3.56-2.98,1.11,0,1.94.25,2.41.53l-.39,1.16c-.35-.21-1.07-.53-2.07-.53-1.5,0-2.07.9-2.07,1.65,0,1.03.67,1.53,2.19,2.12,1.86.72,2.79,1.61,2.79,3.23s-1.23,3.18-3.84,3.18c-1.05,0-2.21-.32-2.8-.72l.38-1.19Z"/>
        <polygon class="cls-1" points="366.75 258.2 363.4 258.2 363.4 257 371.54 257 371.54 258.2 368.18 258.2 368.18 267.98 366.75 267.98 366.75 258.2"/>
        <rect class="cls-1" x="373.23" y="257" width="1.44" height="10.99"/>
        <polygon class="cls-1" points="379.72 258.2 376.39 258.2 376.39 257 384.52 257 384.52 258.2 381.16 258.2 381.16 267.98 379.72 267.98 379.72 258.2"/>
        <path class="cls-1" d="m387.65,257v6.52c0,2.45,1.09,3.5,2.55,3.5,1.62,0,2.68-1.08,2.68-3.5v-6.52h1.43v6.42c0,3.38-1.78,4.75-4.15,4.75-2.25,0-3.95-1.28-3.95-4.7v-6.47h1.44Z"/>
        <polygon class="cls-1" points="399.36 258.2 396.01 258.2 396.01 257 404.16 257 404.16 258.2 400.8 258.2 400.8 267.98 399.36 267.98 399.36 258.2"/>
        <path class="cls-1" d="m414.82,262.38c0,3.77-2.3,5.79-5.11,5.79s-4.94-2.27-4.94-5.6c0-3.49,2.15-5.77,5.08-5.77s4.96,2.3,4.96,5.58m-8.55.16c0,2.37,1.28,4.48,3.52,4.48s3.52-2.08,3.52-4.57c0-2.2-1.14-4.49-3.51-4.49s-3.54,2.19-3.54,4.58"/>
        <polygon class="cls-1" points="426.77 262.84 422.51 262.84 422.51 266.8 427.28 266.8 427.28 267.98 421.08 267.98 421.08 257 427.04 257 427.04 258.18 422.51 258.18 422.51 261.66 426.77 261.66 426.77 262.84"/>
        <polygon class="cls-1" points="429.59 257 431.02 257 431.02 266.8 435.72 266.8 435.72 267.98 429.59 267.98 429.59 257"/>
        <polygon class="cls-1" points="443.47 262.84 439.21 262.84 439.21 266.8 443.97 266.8 443.97 267.98 437.78 267.98 437.78 257 443.73 257 443.73 258.18 439.21 258.18 439.21 261.66 443.47 261.66 443.47 262.84"/>
        <path class="cls-1" d="m453.97,267.64c-.51.26-1.57.53-2.91.53-3.1,0-5.41-1.96-5.41-5.58s2.33-5.77,5.74-5.77c1.36,0,2.23.29,2.61.48l-.36,1.16c-.53-.26-1.29-.45-2.2-.45-2.58,0-4.29,1.64-4.29,4.53,0,2.71,1.55,4.42,4.21,4.42.88,0,1.75-.18,2.32-.46l.28,1.14Z"/>
        <polygon class="cls-1" points="458.79 258.2 455.46 258.2 455.46 257 463.59 257 463.59 258.2 460.23 258.2 460.23 267.98 458.79 267.98 458.79 258.2"/>
        <path class="cls-1" d="m474.26,262.38c0,3.77-2.29,5.79-5.1,5.79s-4.94-2.27-4.94-5.6c0-3.49,2.15-5.77,5.09-5.77s4.95,2.3,4.95,5.58m-8.54.16c0,2.37,1.27,4.48,3.52,4.48s3.52-2.08,3.52-4.57c0-2.2-1.14-4.49-3.5-4.49s-3.54,2.19-3.54,4.58"/>
        <path class="cls-1" d="m476.58,257.14c.73-.13,1.77-.23,2.73-.23,1.52,0,2.51.29,3.18.89.54.49.86,1.24.86,2.1,0,1.44-.91,2.4-2.06,2.79v.06c.84.29,1.34,1.07,1.61,2.22.35,1.53.62,2.59.85,3.01h-1.47c-.18-.32-.43-1.26-.72-2.62-.33-1.51-.93-2.09-2.22-2.13h-1.34v4.76h-1.42v-10.84Zm1.42,5h1.46c1.52,0,2.48-.83,2.48-2.09,0-1.41-1.03-2.03-2.52-2.03-.69,0-1.17.05-1.41.11v4.01Z"/>
        <path class="cls-1" d="m487.71,264.53l-1.14,3.46h-1.47l3.75-10.99h1.7l3.76,10.99h-1.52l-1.18-3.46h-3.89Zm3.62-1.11l-1.09-3.16c-.25-.72-.41-1.38-.57-2.01h-.04c-.16.63-.32,1.32-.55,1.99l-1.07,3.18h3.33Z"/>
        <polygon class="cls-1" points="496.38 257 497.82 257 497.82 266.8 502.52 266.8 502.52 267.98 496.38 267.98 496.38 257"/>
        <path class="cls-1" d="m510.23,267.98v-4.66l-3.5-6.33h1.63l1.55,3.03c.41.83.75,1.5,1.09,2.27h.04c.29-.72.69-1.44,1.1-2.27l1.59-3.03h1.6l-3.67,6.31v4.68h-1.43Z"/>
        <path class="cls-1" d="m521.03,257.16c.86-.15,1.9-.24,3.02-.24,2.05,0,3.5.49,4.46,1.37,1,.9,1.56,2.17,1.56,3.95s-.57,3.26-1.58,4.27c-1.04,1.02-2.73,1.58-4.88,1.58-1.03,0-1.86-.05-2.58-.13v-10.79Zm1.43,9.72c.36.05.88.06,1.43.06,3.05,0,4.68-1.69,4.68-4.66.02-2.59-1.45-4.24-4.46-4.24-.73,0-1.28.06-1.66.14v8.7Z"/>
        <polygon class="cls-1" points="538.06 262.84 533.81 262.84 533.81 266.8 538.57 266.8 538.57 267.98 532.37 267.98 532.37 257 538.33 257 538.33 258.18 533.81 258.18 533.81 261.66 538.06 261.66 538.06 262.84"/>
        <path class="cls-1" d="m544.85,257.13c.68-.12,1.58-.21,2.72-.21,1.4,0,2.43.32,3.08.91.58.52.96,1.32.96,2.3s-.29,1.78-.85,2.35c-.76.8-1.97,1.2-3.36,1.2-.42,0-.82-.01-1.14-.1v4.4h-1.42v-10.86Zm1.42,5.3c.31.08.71.11,1.18.11,1.71,0,2.76-.85,2.76-2.33s-1.05-2.17-2.59-2.17c-.62,0-1.09.05-1.34.11v4.28Z"/>
        <path class="cls-1" d="m554.25,264.53l-1.13,3.46h-1.47l3.75-10.99h1.7l3.75,10.99h-1.52l-1.17-3.46h-3.91Zm3.63-1.11l-1.1-3.16c-.24-.72-.41-1.38-.57-2.01h-.02c-.17.63-.33,1.32-.56,1.99l-1.08,3.18h3.33Z"/>
        <path class="cls-1" d="m562.78,257.14c.72-.13,1.77-.23,2.73-.23,1.52,0,2.51.29,3.18.89.54.49.86,1.24.86,2.1,0,1.44-.91,2.4-2.05,2.79v.06c.83.29,1.34,1.07,1.59,2.22.36,1.53.63,2.59.85,3.01h-1.47c-.17-.32-.42-1.26-.72-2.62-.32-1.51-.93-2.09-2.22-2.13h-1.33v4.76h-1.43v-10.84Zm1.43,5h1.44c1.51,0,2.49-.83,2.49-2.09,0-1.41-1.03-2.03-2.53-2.03-.7,0-1.16.05-1.4.11v4.01Z"/>
        <polygon class="cls-1" points="574.12 258.2 570.78 258.2 570.78 257 578.91 257 578.91 258.2 575.55 258.2 575.55 267.98 574.12 267.98 574.12 258.2"/>
        <rect class="cls-1" x="580.44" y="257" width="1.43" height="10.99"/>
        <path class="cls-1" d="m592.35,267.64c-.51.26-1.56.53-2.9.53-3.1,0-5.42-1.96-5.42-5.58s2.33-5.77,5.74-5.77c1.35,0,2.24.29,2.6.48l-.35,1.16c-.53-.26-1.29-.45-2.2-.45-2.58,0-4.29,1.64-4.29,4.53,0,2.71,1.54,4.42,4.21,4.42.88,0,1.75-.18,2.33-.46l.28,1.14Z"/>
        <rect class="cls-1" x="594.45" y="257" width="1.44" height="10.99"/>
        <path class="cls-1" d="m598.69,257.13c.68-.12,1.58-.21,2.73-.21,1.4,0,2.43.32,3.08.91.59.52.97,1.32.97,2.3s-.29,1.78-.85,2.35c-.77.8-1.98,1.2-3.36,1.2-.42,0-.81-.01-1.14-.1v4.4h-1.42v-10.86Zm1.42,5.3c.31.08.7.11,1.18.11,1.71,0,2.76-.85,2.76-2.33s-1.04-2.17-2.6-2.17c-.61,0-1.09.05-1.33.11v4.28Z"/>
        <path class="cls-1" d="m608.1,264.53l-1.14,3.46h-1.47l3.75-10.99h1.69l3.76,10.99h-1.52l-1.18-3.46h-3.9Zm3.62-1.11l-1.1-3.16c-.24-.72-.4-1.38-.57-2.01h-.03c-.17.63-.33,1.32-.56,1.99l-1.08,3.18h3.33Z"/>
        <path class="cls-1" d="m624.05,267.64c-.51.26-1.57.53-2.91.53-3.1,0-5.41-1.96-5.41-5.58s2.32-5.77,5.74-5.77c1.35,0,2.23.29,2.61.48l-.35,1.16c-.53-.26-1.29-.45-2.21-.45-2.57,0-4.28,1.64-4.28,4.53,0,2.71,1.54,4.42,4.2,4.42.89,0,1.76-.18,2.33-.46l.28,1.14Z"/>
        <rect class="cls-1" x="626.15" y="257" width="1.43" height="10.99"/>
        <path class="cls-1" d="m639.79,262.38c0,3.77-2.3,5.79-5.1,5.79s-4.94-2.27-4.94-5.6,2.15-5.77,5.09-5.77,4.96,2.3,4.96,5.58m-8.54.16c0,2.37,1.27,4.48,3.51,4.48s3.53-2.08,3.53-4.57c0-2.2-1.15-4.49-3.51-4.49s-3.54,2.19-3.54,4.58m5.9-8.07l-2.09,1.91h-1.16l1.52-1.91h1.73Z"/>
        <path class="cls-1" d="m641.95,267.98v-10.99h1.57l3.5,5.56c.8,1.29,1.46,2.45,1.96,3.57l.05-.02c-.13-1.46-.16-2.8-.16-4.52v-4.6h1.34v10.99h-1.44l-3.48-5.58c-.77-1.22-1.51-2.48-2.04-3.67l-.05.02c.08,1.39.09,2.71.09,4.54v4.69h-1.34Z"/>
        <path class="cls-1" d="m664.46,267.64c-.51.26-1.56.53-2.9.53-3.11,0-5.42-1.96-5.42-5.58s2.33-5.77,5.75-5.77c1.35,0,2.22.29,2.6.48l-.36,1.16c-.52-.26-1.28-.45-2.2-.45-2.58,0-4.29,1.64-4.29,4.53,0,2.71,1.56,4.42,4.21,4.42.88,0,1.76-.18,2.33-.46l.28,1.14Z"/>
        <rect class="cls-1" x="666.56" y="257" width="1.43" height="10.99"/>
        <path class="cls-1" d="m672.22,257v6.52c0,2.45,1.09,3.5,2.56,3.5,1.62,0,2.68-1.08,2.68-3.5v-6.52h1.43v6.42c0,3.38-1.78,4.75-4.16,4.75-2.26,0-3.94-1.28-3.94-4.7v-6.47h1.44Z"/>
        <path class="cls-1" d="m681.67,257.16c.86-.15,1.9-.24,3.02-.24,2.04,0,3.5.49,4.45,1.37,1,.9,1.56,2.17,1.56,3.95s-.57,3.26-1.58,4.27c-1.04,1.02-2.74,1.58-4.87,1.58-1.03,0-1.86-.05-2.58-.13v-10.79Zm1.43,9.72c.35.05.87.06,1.42.06,3.05,0,4.69-1.69,4.69-4.66.01-2.59-1.46-4.24-4.46-4.24-.74,0-1.29.06-1.66.14v8.7Z"/>
        <path class="cls-1" d="m694.42,264.53l-1.15,3.46h-1.45l3.74-10.99h1.71l3.75,10.99h-1.52l-1.18-3.46h-3.89Zm3.61-1.11l-1.08-3.16c-.25-.72-.42-1.38-.57-2.01h-.03c-.17.63-.33,1.32-.56,1.99l-1.08,3.18h3.32Z"/>
        <path class="cls-1" d="m702.94,257.16c.86-.15,1.89-.24,3.02-.24,2.04,0,3.49.49,4.45,1.37,1,.9,1.56,2.17,1.56,3.95s-.57,3.26-1.58,4.27c-1.05,1.02-2.74,1.58-4.88,1.58-1.02,0-1.86-.05-2.58-.13v-10.79Zm1.42,9.72c.36.05.88.06,1.43.06,3.05,0,4.68-1.69,4.68-4.66.02-2.59-1.45-4.24-4.45-4.24-.73,0-1.29.06-1.66.14v8.7Z"/>
        <path class="cls-1" d="m715.67,264.53l-1.13,3.46h-1.47l3.76-10.99h1.69l3.75,10.99h-1.51l-1.18-3.46h-3.9Zm3.63-1.11l-1.09-3.16c-.25-.72-.41-1.38-.58-2.01h-.03c-.16.63-.32,1.32-.55,1.99l-1.08,3.18h3.33Z"/>
        <path class="cls-1" d="m724.21,267.98v-10.99h1.56l3.51,5.56c.8,1.29,1.45,2.45,1.95,3.57l.05-.02c-.13-1.46-.16-2.8-.16-4.52v-4.6h1.33v10.99h-1.43l-3.49-5.58c-.77-1.22-1.5-2.48-2.04-3.67l-.06.02c.09,1.39.1,2.71.1,4.54v4.69h-1.33Z"/>
        <path class="cls-1" d="m737.04,264.53l-1.14,3.46h-1.46l3.75-10.99h1.69l3.75,10.99h-1.52l-1.17-3.46h-3.9Zm3.62-1.11l-1.09-3.16c-.24-.72-.41-1.38-.57-2.01h-.03c-.17.63-.33,1.32-.55,1.99l-1.09,3.18h3.33Z"/>
        <path class="cls-1" d="m740.01,244.34h-399.86v1.64h399.86c2.15,0,3.89-.37,3.89-.82s-1.74-.82-3.89-.82"/>
        <path class="cls-1" d="m377.16,220.41c0,2.19-.37,4.16-1.11,5.92-.74,1.76-1.71,3.24-2.88,4.41-1.18,1.18-2.43,2.06-3.77,2.66-2.82,1.25-6.28,1.88-10.37,1.88h-13.81v-2.06c1.28,0,2.25-.12,2.9-.37.65-.24,1.09-.61,1.28-1.1.2-.49.31-1.19.31-2.09v-19.1c0-1.3-.27-2.23-.81-2.76-.54-.53-1.77-.81-3.68-.81v-2.09l6.49-.14c.22,0,1.13-.01,2.72-.04,1.59-.03,2.52-.05,2.77-.05,2.49,0,4.59.13,6.33.4,1.73.27,3.32.7,4.76,1.3,1.32.54,2.55,1.28,3.66,2.24,1.11.96,2.05,2.06,2.82,3.28.77,1.23,1.35,2.56,1.77,4.01.42,1.44.63,2.95.63,4.52m-7.23-.13c0-3.14-.6-5.77-1.79-7.89-1.2-2.12-2.82-3.59-4.88-4.41-.89-.36-1.84-.59-2.84-.68-1.01-.09-2.45-.14-4.32-.14v21.26c0,1.22.06,2.11.18,2.67.12.56.47.98,1.05,1.27.58.29,1.48.43,2.7.43,3.61,0,6.16-1.26,7.66-3.79,1.49-2.53,2.24-5.43,2.24-8.72"/>
        <path class="cls-1" d="m439.33,207.07c-1.35,0-2.32.16-2.91.47-.58.32-.94.76-1.08,1.34-.13.58-.2,1.47-.2,2.68v11.15c0,2.05-.07,3.6-.21,4.63-.15,1.04-.51,2.08-1.13,3.14-1.13,2.03-2.7,3.44-4.74,4.2-2.03.76-3.98,1.15-5.85,1.15-1.38,0-2.81-.18-4.28-.54-1.46-.36-2.83-.96-4.09-1.8-1.26-.84-2.23-1.93-2.88-3.28-.36-.74-.64-1.49-.83-2.25-.19-.74-.31-1.45-.35-2.12-.03-.66-.06-1.53-.06-2.6l-.05-12.6c0-1.31-.25-2.23-.76-2.77-.51-.54-1.71-.8-3.6-.8v-2.05h15.26v2.05c-1.29,0-2.26.13-2.9.39-.63.26-1.05.63-1.24,1.11-.2.49-.29,1.18-.29,2.07v12.6c0,1.29.07,2.43.19,3.4.12.96.32,1.82.59,2.55.51,1.21,1.37,2.17,2.58,2.89,1.21.73,2.55,1.08,4,1.08,1.56,0,3.01-.38,4.36-1.15,1.34-.77,2.29-1.76,2.8-2.98.42-.95.69-1.93.81-2.95.13-1.02.19-2.23.19-3.65v-10.88c0-.99-.02-1.71-.09-2.19-.06-.48-.22-.89-.49-1.26-.27-.37-.71-.63-1.33-.8-.62-.16-1.47-.24-2.56-.24v-2.05h11.13v2.05Z"/>
        <path class="cls-1" d="m500.39,235.27h-8.1c-.3-.33-.67-.8-1.11-1.43-.44-.62-.91-1.35-1.43-2.19-.52-.85-.95-1.54-1.29-2.09l-2.06-3.39c-.92-1.52-1.62-2.55-2.08-3.12-.47-.55-1.01-.92-1.61-1.07-.61-.15-1.63-.23-3.07-.23h-1.14v7.91c0,.83.09,1.49.27,2,.18.5.6.89,1.26,1.16.66.26,1.62.4,2.89.4v2.05h-15.17v-2.05c1.84,0,3.03-.27,3.56-.81.53-.53.79-1.45.79-2.76v-19.1c0-1.29-.25-2.21-.77-2.75-.51-.55-1.7-.82-3.58-.82v-2.09l7.01-.23c.53-.03,1.15-.05,1.84-.07.69-.02,1.33-.02,1.93-.02.45,0,1.22,0,2.3.04,1.5.05,2.9.14,4.22.27,1.31.13,2.34.3,3.09.51,1.12.29,2.17.75,3.18,1.41,1,.65,1.82,1.51,2.46,2.59.63,1.07.95,2.31.95,3.72,0,1.02-.22,2-.66,2.95-.44.95-1.14,1.79-2.12,2.54-.97.75-2.25,1.33-3.85,1.77,1.1.64,2.01,1.43,2.77,2.37.76.95,1.95,2.68,3.57,5.21.93,1.44,1.71,2.54,2.32,3.27.61.73,1.18,1.23,1.68,1.49.52.26,1.16.43,1.96.5v2.05Zm-12.54-22.2c0-2.41-.73-4.01-2.19-4.8-1.46-.78-3.38-1.18-5.74-1.18-.33,0-.59,0-.77.01-.19,0-.4,0-.64,0v12.16h1.41c2.24,0,4.13-.36,5.65-1.1,1.52-.72,2.28-2.43,2.28-5.1"/>
        <path class="cls-1" d="m557.92,235.27h-14.25v-2.05c1.2,0,2.08-.09,2.63-.25.55-.17.82-.58.82-1.22,0-.45-.09-.9-.27-1.36l-1.42-3.57h-9.82l-.73,1.96c-.42,1.1-.63,1.9-.63,2.39,0,.89.35,1.46,1.04,1.7.69.23,1.49.35,2.42.35v2.05h-10.42v-2.05c.84,0,1.54-.15,2.12-.47.58-.31,1.13-.9,1.66-1.77.53-.88,1.1-2.1,1.72-3.7l8.71-22.84h2.12l9.21,23.56c.67,1.67,1.16,2.79,1.47,3.38.32.58.74,1.04,1.3,1.36.55.32,1.31.48,2.32.48v2.05Zm-13.3-10.64l-4.17-10.56-3.97,10.56h8.14Z"/>
        <path class="cls-1" d="m618.82,207.07c-1.44,0-2.47.15-3.1.43-.62.29-1.01.72-1.16,1.28-.16.56-.22,1.49-.22,2.77v23.98h-2.05l-19.79-23.51v16.66c0,1.26.08,2.19.23,2.76.16.57.55,1.01,1.19,1.32.64.3,1.68.45,3.11.45v2.05h-11.25v-2.05c1.34,0,2.31-.15,2.91-.45.6-.31.98-.74,1.11-1.32.15-.57.21-1.49.21-2.76v-15.44c0-1.25-.03-2.18-.1-2.8-.07-.63-.22-1.18-.48-1.65-.26-.47-.66-.85-1.23-1.13-.58-.29-1.37-.49-2.38-.59v-2.05h8.81l17.23,20.35v-13.81c0-1.14-.08-2-.23-2.61-.16-.6-.55-1.07-1.16-1.39-.62-.33-1.6-.49-2.93-.49v-2.05h11.28v2.05Z"/>
        <path class="cls-1" d="m681.08,223.34c-.86.09-1.51.22-1.95.41-.43.18-.74.51-.89.96-.17.45-.26,1.15-.26,2.11v7.09c-2.15,0-4.49.28-7,.85-1.82.4-3.18.68-4.09.84-.9.16-1.97.23-3.21.23-3.27,0-6.08-.76-8.41-2.29-2.33-1.53-4.09-3.5-5.25-5.91-1.17-2.41-1.75-4.88-1.75-7.43,0-2.91.69-5.57,2.07-7.97,1.39-2.4,3.27-4.29,5.63-5.66,2.36-1.38,4.95-2.07,7.76-2.07,3.42,0,6.54,1.18,9.35,3.55.34-.64.61-1.51.82-2.63h2.17l.23,9.91h-2.06c-.31-1.51-.9-2.88-1.76-4.13-.87-1.25-1.94-2.24-3.23-2.97-1.28-.73-2.71-1.1-4.25-1.1-1.14,0-2.24.2-3.33.6-1.09.39-2.1,1.07-3.04,2.05-.95.97-1.71,2.3-2.27,3.98-.58,1.68-.86,3.76-.86,6.23,0,2.11.23,4.14.67,6.09.45,1.95,1.35,3.62,2.72,5.02,1.37,1.4,3.3,2.09,5.8,2.09,1.96,0,3.45-.31,4.46-.92,1.01-.62,1.67-1.37,1.97-2.26.31-.89.46-1.89.46-2.99,0-1.04-.08-1.79-.24-2.28-.15-.47-.52-.82-1.09-1.05-.57-.22-1.45-.33-2.64-.33v-2.05h13.47v2.05Z"/>
        <path class="cls-1" d="m743.67,220.14c0,2.76-.66,5.33-1.96,7.73-1.31,2.4-3.25,4.33-5.81,5.77-2.57,1.46-5.59,2.18-9.09,2.18-2.85,0-5.37-.46-7.53-1.38-2.18-.92-3.96-2.16-5.33-3.71-1.37-1.55-2.39-3.24-3.05-5.09-.66-1.84-.99-3.69-.99-5.55,0-2.69.63-5.24,1.89-7.63,1.26-2.39,3.18-4.31,5.72-5.79,2.54-1.46,5.58-2.2,9.13-2.2,3.22,0,5.97.53,8.23,1.59,2.25,1.06,4.02,2.39,5.28,3.99,1.27,1.61,2.16,3.29,2.72,5.05.54,1.76.81,3.44.81,5.03m-7.23-.09c0-1.69-.15-3.3-.44-4.81-.28-1.52-.8-2.89-1.52-4.12-.74-1.23-1.73-2.2-2.99-2.92-1.27-.72-2.83-1.08-4.69-1.08-2.55,0-4.55.64-5.99,1.91-1.44,1.27-2.41,2.86-2.92,4.77-.52,1.91-.77,4-.77,6.26,0,1.25.09,2.56.24,3.91.16,1.35.56,2.74,1.18,4.16.63,1.42,1.62,2.62,2.99,3.6,1.37.98,3.14,1.46,5.31,1.46s3.91-.5,5.26-1.5c1.34-1.01,2.32-2.23,2.94-3.68.62-1.46,1.01-2.84,1.16-4.16.15-1.33.24-2.58.24-3.77"/>
        <path class="cls-1" d="m508.56,169.34c-1.38,3.38-3.18,6.39-5.39,9.04-3.13,3.93-7.19,6.83-12.17,8.71-3.35,1.26-7.42,2.66-14.24,2.5-4.24-.44-7.83-1.36-10.77-2.78-4.27-2.06-7.45-5.3-9.54-9.72-1.23-2.59-2.06-5.8-2.49-9.64-.33-2.88-.52-7.05-.6-12.51v-.13c-.03-1.78-.04-3.7-.04-5.75v-21.11h.04c5.64,0,17.38-.2,20.18.53,2.83.74,5.14,2.06,6.92,3.97,1.72,1.78,2.99,3.89,3.82,6.31.83,2.43,1.52,4.15,2.08,8.89l3.31-.07v-44.49l-3.31-.07c-.55,4.73-1.25,6.46-2.08,8.89-.83,2.43-2.11,4.53-3.82,6.32-1.79,1.9-4.09,3.23-6.92,3.96-2.8.73-14.6.53-20.22.53v-47.77h21.11c6.51,0,11.73.45,15.67,1.34,3.93.9,7.34,2.41,10.24,4.57,3.49,2.58,5.78,5.8,8.01,8.94,1.34,1.9,3.59,5.72,4.22,6.7h1.72v-29.55h-100.52v2.12c3.56.18,6.43.67,8.62,1.47,2.18.8,4.1,2.09,5.76,3.87,1.9,1.97,3.21,4.47,3.92,7.52.7,3.04,1.06,7.69,1.06,13.97v67.94c0,6.27-.36,10.92-1.06,13.96-.71,3.04-2.02,5.55-3.92,7.51-1.72,1.78-3.67,3.08-5.85,3.87-2.18.8-5.02,1.29-8.53,1.47v2.12h99.98v-36.74l-1.36-.03c-1.17,5.53-2.44,9.98-3.82,13.36"/>
        <path class="cls-1" d="m613.07,74.35c-3.82-2.95-8.02-4.91-12.63-5.9-4.61-.98-11.77-1.47-21.49-1.47h-55.59v2.12h.65c3.93.25,7.13.97,9.59,2.17,2.46,1.2,4.48,3.03,6.08,5.48,1.11,1.79,1.89,4.1,2.35,6.96.46,2.86.69,6.93.69,12.21v67.94c0,6.34-.34,11-1.01,14.01-.68,3.01-2,5.5-3.96,7.46-1.66,1.73-3.59,3-5.76,3.83-2.18.83-5.05,1.34-8.62,1.52v2.12h58.91v-2.12c-3.57-.18-6.44-.69-8.62-1.52-2.18-.84-4.11-2.11-5.77-3.83-1.9-1.96-3.21-4.46-3.91-7.51-.71-3.04-1.06-7.7-1.06-13.97v-33.09h18.07c7.99,0,13.03-.09,15.12-.28,6.57-.55,12.17-2.18,16.78-4.88,8.85-5.23,13.28-13.46,13.28-24.71s-4.36-19.91-13.09-26.55m-18.26,47.2c-2.58,2.4-5.52,4.05-8.81,4.93-3.28.89-7.97,1.34-14.05,1.34h-9.04v-57.98h7.74c5.05,0,8.27.06,9.68.18,5.16.55,9.61,2.4,13.36,5.53,3.26,2.65,5.77,6.07,7.52,10.28,1.75,4.21,2.63,8.83,2.63,13.87,0,9.1-3.01,16.38-9.03,21.85"/>
        <path class="cls-1" d="m743.81,155.56c-1.6,8.66-4.18,15.54-7.74,20.65-3.07,4.42-7.4,7.85-12.99,10.28-5.6,2.43-11.9,3.64-18.9,3.64-14.01,0-25.25-4.86-33.74-14.57-4.61-5.23-8.12-11.71-10.51-19.45-2.4-7.74-3.6-16.44-3.6-26.08,0-11.37,1.76-21.51,5.25-30.42,2.46-6.33,5.63-11.97,9.5-16.91,3.87-4.95,8.05-8.75,12.54-11.39,5.09-3.01,11.12-4.52,18.06-4.52,4.62,0,8.76.74,12.45,2.22,3.69,1.47,7.25,3.84,10.69,7.1,4.55,4.3,8.02,9.03,10.42,14.19,1.34,2.89,3.09,7.29,5.25,13.19.36.93.89,2.28,1.57,4.06h2.11l-1.1-41.21h-2.21c-.61,1.42-1.14,2.43-1.57,3.04-.99,1.29-2.24,1.94-3.78,1.94-1.1,0-2.39-.28-3.87-.83l-7.56-2.49c-8.3-2.82-16.16-4.23-23.6-4.23-7.8,0-15.6,1.3-23.37,3.92-7.78,2.61-14.46,6.13-20.05,10.55-7.25,5.78-12.91,13.41-16.96,22.9-4.05,9.49-6.09,19.87-6.09,31.11,0,14.69,3.47,27.33,10.42,37.93,6.95,10.6,16.6,17.93,28.95,21.98,7.74,2.52,15.86,3.78,24.33,3.78,9.09,0,17.1-1.45,24.01-4.33,6.92-2.89,12.34-7.07,16.27-12.54,4.12-5.71,6.76-13.43,7.92-23.14l-2.12-.37Z"/>
        <path class="cls-1" d="m338.46,69.05c3.5.18,6.35.67,8.56,1.47,2.22.8,4.15,2.09,5.81,3.87,1.97,1.97,3.29,4.46,3.96,7.47.67,3.02,1.01,7.68,1.01,14.01v67.94c0,6.33-.34,11-1.01,14.01-.67,3.01-2,5.5-3.96,7.47-1.66,1.72-3.59,2.99-5.77,3.82-2.18.83-5.06,1.34-8.61,1.52v2.12h58.9v-2.12c-4.18-.24-7.52-.97-10.05-2.17-2.52-1.2-4.58-3.02-6.17-5.48-1.11-1.78-1.91-4.15-2.4-7.1-.49-2.95-.73-6.98-.73-12.08v-67.94c0-4.24.18-7.99.56-11.25.55-4.36,2.03-7.77,4.42-10.23,1.72-1.78,3.67-3.07,5.85-3.87,2.18-.8,5.03-1.29,8.53-1.47v-2.12h-58.9v2.12Z"/>
      </g>
      <g>
        <path class="cls-1" d="m172.98,76.77c-1.02,0-1.85.83-1.85,1.83s.83,1.85,1.85,1.85,1.83-.82,1.83-1.85-.82-1.83-1.83-1.83"/>
        <path class="cls-1" d="m183.9,78.78l-5.7-1.18c-.96-.2-1.89.41-2.1,1.35-.21.98.41,1.89,1.36,2.11l5.71,1.2c.94.19,1.88-.42,2.08-1.38.21-.93-.41-1.88-1.35-2.1"/>
        <polygon class="cls-1" points="158.33 78.37 163.8 81.03 169.26 78.37 163.8 75.99 158.33 78.37"/>
        <path class="cls-1" d="m138.47,80c-1.01,0-1.83.81-1.83,1.84s.81,1.83,1.83,1.83,1.84-.81,1.84-1.83-.81-1.84-1.84-1.84"/>
        <path class="cls-1" d="m149.06,77.6l-5.7,1.18c-.95.22-1.57,1.17-1.36,2.1.19.96,1.13,1.57,2.1,1.38l5.69-1.2c.96-.22,1.56-1.13,1.37-2.11-.21-.94-1.14-1.54-2.1-1.35"/>
        <path class="cls-1" d="m188.76,80c-1.01,0-1.83.81-1.83,1.84s.82,1.83,1.83,1.83,1.84-.81,1.84-1.83-.82-1.84-1.84-1.84"/>
        <path class="cls-1" d="m154.27,76.77c-1.01,0-1.83.83-1.83,1.83s.82,1.85,1.83,1.85,1.85-.82,1.85-1.85-.84-1.83-1.85-1.83"/>
        <path class="cls-1" d="m151.71,243.7s.02,0,.04,0c-.01,0-.03,0-.04,0h0Z"/>
        <path class="cls-1" d="m156.34,239.19s.05,0,.07,0c-.01,0-.03,0-.05,0,0,0-.01,0-.02,0"/>
        <path class="cls-1" d="m167.89,241.36s.08-.01.13-.01h0s-.09,0-.13.01"/>
        <path class="cls-1" d="m158.44,242.56c-.09,0-.18,0-.27,0,.05,0,.1,0,.15,0,.04,0,.08,0,.12,0"/>
        <path class="cls-1" d="m159.73,242.7c.07,0,.14-.01.21-.01-.02,0-.03,0-.05,0-.06,0-.11,0-.17.01"/>
        <path class="cls-1" d="m162.85,242.05c.06,0,.12,0,.18,0h-.06s-.08,0-.12,0"/>
        <path class="cls-1" d="m158.63,242.84s.04,0,.06,0c-.05,0-.1,0-.15,0,.03,0,.06,0,.09,0"/>
        <path class="cls-1" d="m160.1,235.96s.01,0,.02,0c0,0-.01,0-.02,0h0"/>
        <path class="cls-1" d="m121.93,74.48c1.6,0,2.92-1.32,2.92-2.92s-1.32-2.95-2.92-2.95-2.92,1.33-2.92,2.95,1.31,2.92,2.92,2.92"/>
        <path class="cls-1" d="m129.28,66.21c.1-.43.14-.87.17-1.24-1.07-.17-2-.04-3.02.31l-.95.32-.24-.98c-.09-.3-.37-1.31-.9-1.45-1.49.65-2.7,2-3.35,3.8l-.24.63c.37-.12.78-.18,1.18-.18,2.22,0,4.02,1.71,4.2,3.9.43.05.87.11,1.32.11.74,0,1.51-.21,2.15-.4-.1-1.01-.42-1.67-.74-1.87l-.68-.5.4-.72c.29-.52.54-1,.7-1.73"/>
        <path class="cls-1" d="m205.62,68.62c-1.61,0-2.93,1.33-2.93,2.95s1.32,2.92,2.93,2.92,2.93-1.32,2.93-2.92-1.31-2.95-2.93-2.95"/>
        <path class="cls-1" d="m197.95,71.02c.65.2,1.42.38,2.16.38.45,0,.9-.04,1.32-.09.18-2.18,1.99-3.89,4.2-3.89.41,0,.81.06,1.18.17l-.23-.63c-.67-1.8-1.87-3.15-3.35-3.8-.53.14-.82,1.14-.9,1.44l-.25.98-.95-.31c-1-.35-1.94-.48-3.01-.31.02.37.06.81.16,1.24.17.72.41,1.21.71,1.73l.4.72-.68.49c-.32.2-.64.86-.75,1.86"/>
        <path class="cls-1" d="m196.22,79.18c.56,0,1.09-.37,1.29-.94.26-.71-.12-1.51-.83-1.75-9.71-3.5-21.15-5.34-33.06-5.34s-23.31,1.84-33.02,5.33c-.72.25-1.09,1.04-.84,1.77.26.71,1.05,1.08,1.76.85,9.43-3.38,20.52-5.19,32.09-5.19s22.7,1.8,32.13,5.19c.15.05.31.09.47.09"/>
        <path class="cls-1" d="m192.53,89c-8.45-3.73-18.46-5.71-28.94-5.71s-20.59,2-29.08,5.79c-.81.36-1.17,1.31-.81,2.12.26.6.84.96,1.48.96.2,0,.43-.05.63-.14,8.09-3.6,17.7-5.52,27.78-5.52s19.59,1.88,27.63,5.44c.82.35,1.77,0,2.14-.81.35-.83-.01-1.77-.83-2.14"/>
        <path class="cls-1" d="m163.62,75.24c-11.74,0-22.66,1.88-31.71,5.01l2.09,7.5c8.14-3.83,18.48-6.02,29.6-6.02s21.52,2.41,29.71,6.34l2.41-7.74c-9.13-3.22-20.16-5.08-32.09-5.08m-25.15,8.42c-1.01,0-1.82-.81-1.82-1.82s.81-1.84,1.82-1.84,1.84.81,1.84,1.84-.81,1.82-1.84,1.82m11.31-2.61l-5.69,1.2c-.96.19-1.9-.41-2.1-1.38-.2-.93.41-1.88,1.36-2.09l5.7-1.18c.95-.2,1.89.41,2.1,1.35.19.97-.41,1.89-1.37,2.11m4.49-.6c-1.01,0-1.83-.82-1.83-1.85s.82-1.83,1.83-1.83,1.85.83,1.85,1.83-.84,1.85-1.85,1.85m9.53.57l-5.47-2.65,5.47-2.39,5.46,2.39-5.46,2.65Zm9.18-.57c-1.02,0-1.85-.82-1.85-1.85s.83-1.83,1.85-1.83,1.83.83,1.83,1.83-.82,1.85-1.83,1.85m12.27.42c-.2.96-1.14,1.57-2.08,1.38l-5.71-1.2c-.95-.22-1.57-1.13-1.36-2.11.2-.94,1.14-1.54,2.1-1.35l5.7,1.18c.94.21,1.56,1.17,1.35,2.09m3.5,2.79c-1.01,0-1.83-.81-1.83-1.82s.82-1.84,1.83-1.84,1.84.81,1.84,1.84-.82,1.82-1.84,1.82"/>
        <path class="cls-1" d="m163.86,38.65c1.39,0,2.51-1.14,2.51-2.51s-1.12-2.54-2.51-2.54-2.53,1.12-2.53,2.54,1.13,2.51,2.53,2.51"/>
        <path class="cls-1" d="m163.86,32.12c1.18,0,2.14-.96,2.14-2.15s-.96-2.15-2.14-2.15-2.14.97-2.14,2.15.96,2.15,2.14,2.15"/>
        <path class="cls-1" d="m152.05,63.89c0,.76.62,1.39,1.38,1.39s1.39-.63,1.39-1.39-.62-1.37-1.39-1.37-1.38.62-1.38,1.37"/>
        <path class="cls-1" d="m133.9,50.23c1.64,0,2.98-1.33,2.98-2.98s-1.34-2.99-2.98-2.99-3,1.36-3,2.99,1.33,2.98,3,2.98"/>
        <path class="cls-1" d="m135.27,43.66c1.44,0,2.61-1.17,2.61-2.62s-1.17-2.62-2.61-2.62-2.62,1.18-2.62,2.62,1.17,2.62,2.62,2.62"/>
        <path class="cls-1" d="m139.51,45.43c.42,1.67,2.18,2.91,4.13,2.91,2.17,0,3.89-1.7,3.89-3.85,0-1.13-.52-2.16-1.4-2.86-.22-.2-.46-.37-.73-.48-.05,0-.1-.04-.15-.09-.12-.05-.25-.06-.35-.06-.18-.04-.34-.05-.51-.05-1.44,0-2.62,1.17-2.62,2.63s1.19,2.6,2.62,2.6c.26,0,.51-.02.75-.09-.39.34-.92.54-1.51.54-1.17,0-2.26-.69-2.49-1.62,0-.02,0-.05-.02-.06-.66-2.06.17-3.89.99-5.04,1.92-2.73,5.68-4.63,9.36-4.75,3.45-.11,5.51-.5,6.73-.94-.29,2-.45,4.16-.45,6.26v.78c0,1.11,0,1.82.12,3.09.05.46.45.82.92.82,0,0,.06,0,.09-.01.51-.06.87-.51.82-1.01-.11-1.15-.11-1.8-.11-2.86v-.8c0-7.22,1.74-12.83,3.53-14.24.21.09.45.16.71.16.22,0,.44-.05.64-.15,1.77,1.48,3.49,7.04,3.49,14.23v.8c.01,1.06.01,1.72-.12,2.86-.05.51.31.95.83,1.01.03.01.06.01.1.01.46,0,.86-.36.9-.82.14-1.26.14-1.97.13-3.09v-.78c0-2.11-.15-4.26-.44-6.26,1.22.43,3.28.82,6.73.94,3.68.12,7.44,2.02,9.35,4.75.82,1.15,1.65,2.98.98,5.04-.01.02-.01.04-.02.06-.22.92-1.31,1.62-2.47,1.62-.6,0-1.12-.2-1.51-.54.24.07.49.09.76.09,1.43,0,2.6-1.17,2.6-2.6s-1.17-2.63-2.6-2.63c-.18,0-.35.01-.51.05-.13,0-.25.01-.38.06-.06.05-.08.08-.14.09-.27.12-.51.28-.73.48-.87.69-1.39,1.72-1.39,2.86,0,2.16,1.71,3.85,3.9,3.85,1.93,0,3.69-1.24,4.12-2.91.68-2.12.24-4.42-1.21-6.5-2.26-3.19-6.45-5.34-10.7-5.46-5.72-.17-7-1.17-7.11-1.27-.02-.04-.04-.07-.05-.07-.71-3.39-1.9-6.18-3.52-7.41-.02-.86-.74-1.59-1.63-1.59s-1.57.68-1.63,1.54c-1.67,1.16-2.88,3.99-3.61,7.46-.01,0-.04.03-.05.07-.11.1-1.4,1.1-7.11,1.27-4.26.12-8.46,2.28-10.7,5.46-1.46,2.08-1.89,4.39-1.21,6.5"/>
        <path class="cls-1" d="m137.88,37.11c1.12,0,2.05-.92,2.05-2.06s-.93-2.06-2.05-2.06-2.07.93-2.07,2.06.93,2.06,2.07,2.06"/>
        <path class="cls-1" d="m142.62,33.13c.94,0,1.68-.74,1.68-1.69s-.75-1.67-1.68-1.67-1.68.75-1.68,1.67.76,1.69,1.68,1.69"/>
        <path class="cls-1" d="m147.91,31.64c.74,0,1.34-.58,1.34-1.34s-.6-1.34-1.34-1.34-1.34.61-1.34,1.34.6,1.34,1.34,1.34"/>
        <path class="cls-1" d="m152.74,31.24c.64,0,1.15-.53,1.15-1.18s-.51-1.17-1.15-1.17-1.16.52-1.16,1.17.51,1.18,1.16,1.18"/>
        <path class="cls-1" d="m157.02,29.79c.38,0,.71-.32.71-.71s-.33-.72-.71-.72c-.4,0-.72.35-.72.72s.31.71.72.71"/>
        <path class="cls-1" d="m158.3,25.61c0,.42.32.71.71.71s.71-.29.71-.71c0-.38-.32-.7-.71-.7s-.71.32-.71.7"/>
        <path class="cls-1" d="m115.87,61.3c1.31.89,2.56.99,3.51.99,2.61,0,4.79-2.33,4.79-5.07,0-1.82-1.02-3.44-2.52-4.25-.56-.38-1.23-.58-1.94-.58-1.94,0-3.53,1.58-3.53,3.53s1.59,3.54,3.53,3.54c.9,0,1.72-.36,2.36-.92-.49,1.09-1.53,1.9-2.69,1.9-.77,0-1.6-.07-2.51-.68,0,0-.03-.02-.04-.04-2.28-1.33-3.28-3.32-3.37-6.62-.15-5.57,5.98-10.79,13.64-11.63,1.18-.11,2.36-.14,3.49-.04.49.02.95-.33.99-.84.04-.51-.33-.95-.84-1-1.26-.1-2.55-.09-3.86.05-8.58.93-15.44,6.98-15.28,13.51.06,2.44.57,5.94,4.25,8.15"/>
        <path class="cls-1" d="m130.98,37.5c.38,0,.68-.32.68-.7s-.31-.67-.68-.67-.69.29-.69.67.31.7.69.7"/>
        <path class="cls-1" d="m127.3,37.93c.43,0,.8-.37.8-.8,0-.46-.36-.82-.8-.82s-.8.36-.8.82c0,.43.35.8.8.8"/>
        <path class="cls-1" d="m123.24,38.91c.64,0,1.18-.53,1.18-1.17s-.53-1.19-1.18-1.19-1.18.53-1.18,1.19.52,1.17,1.18,1.17"/>
        <path class="cls-1" d="m118.41,40.44c.82,0,1.48-.65,1.48-1.47s-.66-1.47-1.48-1.47-1.47.66-1.47,1.47.66,1.47,1.47,1.47"/>
        <path class="cls-1" d="m113.55,43.49c.91,0,1.65-.72,1.65-1.65s-.74-1.66-1.65-1.66-1.67.75-1.67,1.66.75,1.65,1.67,1.65"/>
        <path class="cls-1" d="m109.67,48.59c1.07,0,1.96-.88,1.96-1.96s-.89-1.95-1.96-1.95-1.95.88-1.95,1.95.86,1.96,1.95,1.96"/>
        <path class="cls-1" d="m107.79,56.23c1.52,0,2.74-1.22,2.74-2.73s-1.22-2.75-2.74-2.75-2.73,1.22-2.73,2.75,1.22,2.73,2.73,2.73"/>
        <path class="cls-1" d="m112.34,60.82c0-1.52-1.24-2.74-2.75-2.74s-2.73,1.22-2.73,2.74,1.21,2.74,2.73,2.74,2.75-1.23,2.75-2.74"/>
        <path class="cls-1" d="m158.16,19.48c1.06,2.07,3.21,3.49,5.7,3.49s4.64-1.42,5.7-3.49h-11.4Z"/>
        <path class="cls-1" d="m166,10.51v4.38h4.05c-.54-2.04-2.07-3.68-4.05-4.38"/>
        <path class="cls-1" d="m161.4,10.62c-1.82.75-3.22,2.33-3.74,4.27h3.74v-4.27Z"/>
        <polygon class="cls-1" points="165.09 18.58 170.14 18.58 170.14 15.8 165.09 15.8 165.09 6.37 168.3 6.37 168.3 3.6 165.09 3.6 165.09 0 162.32 0 162.32 3.6 159.48 3.6 159.48 6.37 162.32 6.37 162.32 15.8 157.34 15.8 157.34 18.58 163.71 18.58 165.09 18.58"/>
        <path class="cls-1" d="m141.39,50.5s-1.17-1.84-2.73-3.17c-.83,1.87-1.06,4.08-1.06,4.08,0,0-3.41-.76-4-.12,0,0,.3,3.92,4.75,8.01.37-.56.9-1.05,1.53-1.37l-2.55-3.57,2.39,1.23-.18-4.43,1.75,4.05,1.63-2.14-.74,4.36c.71.03,1.38.26,1.95.64,2.27-5.71.79-9.39.79-9.39-.81-.33-3.54,1.84-3.54,1.84"/>
        <path class="cls-1" d="m131.4,63.93c1.34.69,2.88.92,2.88.92,0,0-.43,2.7.02,3.17,0,0,2.43-.14,5.01-3.04-.47-.36-.85-.8-1.13-1.34l-1.82,1.47.78-1.88-3.08.08,2.79-1.34-1.55-1.31,2.39.52c.06-.59.25-1.14.55-1.65-3.76-1.55-6.07-.53-6.07-.53-.2.63,1.4,2.83,1.4,2.83,0,0-1.29.9-2.18,2.12"/>
        <path class="cls-1" d="m149.38,55s-2.49.1-5.15,3.1c.48.34.89.73,1.21,1.23l1.84-1.47-.8,1.89,3.1-.02-2.81,1.28,1.53,1.35-2.2-.51c-.02.59-.18,1.17-.44,1.69,3.55,1.46,5.78.51,5.78.51.21-.62-1.38-2.84-1.38-2.84,0,0,1.31-.87,2.21-2.08-1.34-.72-2.89-.95-2.89-.95,0,0,.49-2.66.02-3.15"/>
        <path class="cls-1" d="m118.65,69.02c.25-.32.54-.61.88-.83l-.29-1.35c-.2-.9-.51-1.71-.96-2.5-.47-.87-1.13-1.63-1.95-2.34-.72.66-1.55,1.56-2.06,2.37v.74s-.4.01-.4.01h-.03v.02s-.33-.02-.33-.02c-.08.02-.17.02-.22.02h-.51c-1.34.26-2.66,1.41-3.27,2.77,1.28-.36,2.67-.42,3.83-.42,1.89,0,3.72.53,5.3,1.53"/>
        <path class="cls-1" d="m141.88,59.7c-.14,0-.3.01-.42.02-1.04.26-1.69,1.28-1.46,2.3.21.9.98,1.49,1.87,1.49.15,0,.3-.02.43-.05.51-.1.93-.42,1.19-.85.27-.43.36-.96.25-1.44-.2-.87-.98-1.47-1.86-1.47"/>
        <path class="cls-1" d="m158.04,46.2s-.61,4,2.96,9.09c.48-.47,1.08-.83,1.75-1l-1.77-4.23,2.07,1.72.81-4.33.81,4.33,2.06-1.72-1.78,4.28c.66.2,1.24.57,1.71,1.05,3.64-5.15,3.01-9.18,3.01-9.18-.72-.48-3.87,1.03-3.87,1.03,0,0-.24-.7-.68-1.59,1.02-.48,1.73-1.51,1.73-2.71,0-1.66-1.34-2.98-2.99-2.98s-2.99,1.32-2.99,2.98c0,1.19.71,2.22,1.72,2.71-.43.9-.67,1.59-.67,1.59,0,0-3.15-1.51-3.87-1.03"/>
        <path class="cls-1" d="m155.66,59.59s-1.05,2.51-.7,3.08c0,0,2.5.4,5.77-1.99-.35-.43-.63-.95-.78-1.5l-2.32,1.13,1.19-1.68-3.02-.61,3.02-.65-1.21-1.64,2.41,1.13c.2-.54.48-1.03.86-1.44-3.38-2.49-5.96-2.01-5.96-2.01-.35.56.71,3.07.71,3.07,0,0-1.45.59-2.59,1.58,1.15.96,2.61,1.54,2.61,1.54"/>
        <path class="cls-1" d="m172.57,53.4s-2.55-.48-5.91,1.99c.38.4.69.88.87,1.42l2.35-1.09-1.21,1.64,3.02.65-3.03.62,1.2,1.67-2.25-1.1c-.16.59-.44,1.09-.81,1.51,3.25,2.36,5.73,1.96,5.73,1.96.34-.57-.71-3.08-.71-3.08,0,0,1.46-.57,2.62-1.54-1.14-1-2.59-1.58-2.59-1.58,0,0,1.07-2.51.72-3.07"/>
        <path class="cls-1" d="m174.12,62.52c-.76,0-1.38.62-1.38,1.37s.62,1.39,1.38,1.39,1.39-.63,1.39-1.39-.63-1.37-1.39-1.37"/>
        <path class="cls-1" d="m190.68,47.25c0,1.65,1.34,2.98,3,2.98s2.98-1.33,2.98-2.98-1.35-2.99-2.98-2.99-3,1.35-3,2.99"/>
        <path class="cls-1" d="m189.68,41.03c0,1.45,1.16,2.62,2.61,2.62s2.62-1.17,2.62-2.62-1.18-2.62-2.62-2.62-2.61,1.18-2.61,2.62"/>
        <path class="cls-1" d="m189.69,37.11c1.12,0,2.04-.92,2.04-2.06s-.92-2.06-2.04-2.06-2.06.93-2.06,2.06.91,2.06,2.06,2.06"/>
        <path class="cls-1" d="m184.93,33.13c.93,0,1.68-.74,1.68-1.69s-.76-1.67-1.68-1.67-1.68.75-1.68,1.67.76,1.69,1.68,1.69"/>
        <path class="cls-1" d="m179.64,31.64c.75,0,1.34-.58,1.34-1.34s-.59-1.34-1.34-1.34-1.34.61-1.34,1.34.6,1.34,1.34,1.34"/>
        <path class="cls-1" d="m174.81,31.24c.65,0,1.15-.53,1.15-1.18s-.51-1.17-1.15-1.17-1.17.52-1.17,1.17.53,1.18,1.17,1.18"/>
        <path class="cls-1" d="m169.83,29.07c0,.4.32.71.72.71s.71-.32.71-.71-.33-.72-.71-.72-.72.34-.72.72"/>
        <path class="cls-1" d="m167.84,25.61c0,.42.31.71.72.71.39,0,.71-.29.71-.71,0-.38-.32-.7-.71-.7-.41,0-.72.32-.72.7"/>
        <path class="cls-1" d="m195.97,40.58c.04.51.49.87.99.85,1.14-.1,2.32-.08,3.49.04,7.67.83,13.79,6.06,13.66,11.63-.1,3.3-1.1,5.29-3.38,6.62-.02.01-.02.04-.04.04-.9.61-1.74.68-2.52.68-1.13,0-2.18-.81-2.66-1.9.61.56,1.44.92,2.35.92,1.93,0,3.53-1.6,3.53-3.54s-1.59-3.53-3.53-3.53c-.71,0-1.38.2-1.95.59-1.5.81-2.53,2.42-2.53,4.25,0,2.75,2.2,5.07,4.79,5.07.96,0,2.23-.1,3.51-.98,3.69-2.2,4.19-5.71,4.26-8.15.16-6.53-6.69-12.58-15.29-13.52-1.3-.13-2.58-.15-3.83-.05-.51.05-.89.49-.85,1"/>
        <path class="cls-1" d="m196.58,37.5c.39,0,.7-.32.7-.7s-.31-.67-.7-.67-.69.29-.69.67.31.7.69.7"/>
        <path class="cls-1" d="m200.27,37.93c.44,0,.8-.37.8-.8,0-.46-.36-.82-.8-.82s-.81.36-.81.82c0,.43.35.8.81.8"/>
        <path class="cls-1" d="m204.32,38.91c.65,0,1.18-.53,1.18-1.17s-.54-1.19-1.18-1.19-1.18.53-1.18,1.19.53,1.17,1.18,1.17"/>
        <path class="cls-1" d="m209.15,40.44c.82,0,1.48-.65,1.48-1.47s-.66-1.47-1.48-1.47-1.47.66-1.47,1.47.66,1.47,1.47,1.47"/>
        <path class="cls-1" d="m214.02,43.49c.91,0,1.66-.72,1.66-1.65s-.75-1.66-1.66-1.66-1.66.75-1.66,1.66.75,1.65,1.66,1.65"/>
        <path class="cls-1" d="m217.89,48.59c1.07,0,1.96-.88,1.96-1.96s-.88-1.95-1.96-1.95-1.95.88-1.95,1.95.88,1.96,1.95,1.96"/>
        <path class="cls-1" d="m217.03,53.5c0,1.51,1.23,2.73,2.74,2.73s2.75-1.22,2.75-2.73-1.24-2.76-2.75-2.76-2.74,1.22-2.74,2.76"/>
        <path class="cls-1" d="m220.7,60.82c0-1.52-1.23-2.74-2.72-2.74s-2.75,1.22-2.75,2.74,1.22,2.74,2.75,2.74,2.72-1.23,2.72-2.74"/>
        <path class="cls-1" d="m189.96,51.4s-.22-2.21-1.06-4.08c-1.57,1.34-2.73,3.17-2.73,3.17,0,0-2.73-2.17-3.55-1.84,0,0-1.47,3.68.8,9.4.57-.38,1.23-.61,1.94-.64l-.74-4.35,1.64,2.14,1.75-4.05-.2,4.43,2.41-1.23-2.54,3.55c.61.33,1.14.83,1.51,1.39,4.47-4.09,4.75-8.01,4.75-8.01-.59-.63-4,.12-4,.12"/>
        <path class="cls-1" d="m195.39,58.98s-2.32-1.01-6.05.54c.28.51.46,1.05.52,1.65l2.4-.52-1.56,1.31,2.8,1.34-3.09-.08.79,1.88-1.82-1.47c-.28.55-.67.98-1.13,1.34,2.59,2.91,5.01,3.04,5.01,3.04.47-.47.02-3.17.02-3.17,0,0,1.55-.24,2.89-.92-.89-1.21-2.17-2.11-2.17-2.11,0,0,1.6-2.18,1.4-2.83"/>
        <path class="cls-1" d="m177.51,61.18s-1.58,2.22-1.37,2.85c0,0,2.22.95,5.79-.51-.27-.51-.43-1.1-.46-1.68l-2.2.51,1.54-1.35-2.82-1.28,3.1.03-.82-1.89,1.86,1.48c.31-.5.73-.89,1.2-1.23-2.67-2.99-5.16-3.1-5.16-3.1-.46.49.02,3.15.02,3.15,0,0-1.56.23-2.89.96.9,1.2,2.2,2.07,2.2,2.07"/>
        <path class="cls-1" d="m214.26,65.14c-.05,0-.13,0-.21-.02l-.34.02v-.02h-.03l-.37-.02-.02-.72c-.51-.81-1.33-1.71-2.06-2.37-.83.71-1.48,1.46-1.97,2.34-.44.78-.75,1.59-.94,2.5l-.28,1.36c.32.22.62.51.87.83,1.57-.99,3.43-1.53,5.29-1.53,1.16,0,2.54.06,3.83.42-.61-1.36-1.93-2.51-3.27-2.76h-.51Z"/>
        <path class="cls-1" d="m185.68,59.7c-.89,0-1.67.61-1.86,1.47-.11.49-.05,1.01.24,1.44.27.43.7.75,1.18.85.15.02.29.05.44.05.9,0,1.66-.59,1.86-1.49.24-1.02-.41-2.04-1.43-2.3-.14-.01-.29-.02-.43-.02"/>
        <path class="cls-1" d="m125.94,72.93c-.2.62-.53,1.16-.96,1.61,1.21.79,2.61,1.24,4.08,1.24,2.7,0,5.14-1.36,6.47-3.55.82.4,1.71.6,2.56.6,2.83,0,5.2-1.93,5.88-4.54,1.3,1.19,3,1.9,4.78,1.9,2.02,0,3.91-.83,5.22-2.21,1.2,1.03,2.68,1.58,4.19,1.58,2.37,0,4.46-1.3,5.62-3.21,1.15,1.91,3.25,3.21,5.62,3.21,1.52,0,2.99-.55,4.18-1.58,1.32,1.38,3.2,2.21,5.23,2.21,1.78,0,3.49-.71,4.78-1.9.68,2.61,3.07,4.54,5.88,4.54.85,0,1.72-.2,2.55-.6,1.34,2.19,3.77,3.55,6.47,3.55,1.47,0,2.89-.45,4.1-1.24-.43-.45-.77-.98-.96-1.61-.92.62-2.01.97-3.14.97-2.31,0-4.35-1.29-5.23-3.34-.1-.26-.32-.45-.59-.53-.27-.06-.55-.02-.79.11-.75.52-1.62.8-2.41.8-2.32,0-4.2-1.88-4.2-4.19,0-.37.04-.66.1-.95-.22,0-.44-.02-.64-.09-.43-.1-.82-.25-1.18-.47-.86,1.83-2.74,3.06-4.74,3.06-1.81,0-3.43-.83-4.36-2.23-.16-.24-.43-.41-.72-.42-.29-.02-.58.09-.76.33-.93,1.06-2.26,1.7-3.56,1.7-2.41,0-4.44-1.85-4.65-4.24v-1.45c-.12.03-.24.05-.37.09h-.12c-.16.03-.31.05-.47.05h-.02c-.15,0-.31-.03-.47-.05h-.12c-.12-.04-.24-.06-.36-.09v1.45c-.21,2.38-2.25,4.24-4.65,4.24-1.3,0-2.64-.64-3.56-1.7-.19-.24-.47-.35-.76-.33-.28.01-.56.18-.72.42-.93,1.41-2.56,2.23-4.36,2.23-2,0-3.88-1.23-4.73-3.06-.37.22-.77.37-1.18.47-.22.06-.43.09-.64.09.07.3.1.58.1.95,0,2.31-1.88,4.19-4.2,4.19-.79,0-1.67-.28-2.42-.8-.24-.14-.51-.18-.79-.11-.26.08-.48.27-.6.53-.85,2.04-2.91,3.34-5.22,3.34-1.13,0-2.21-.35-3.13-.97"/>
        <path class="cls-1" d="m161.63,58.15c0,1.18.97,2.15,2.15,2.15s2.14-.97,2.14-2.15-.97-2.15-2.14-2.15-2.15.97-2.15,2.15"/>
        <path class="cls-1" d="m96.27,90.65c.84,11.79-2.28,23.11-5.87,31.08-6.65,15.67-11.5,33.51-12.85,55.2,8.02-2.37,14.2-9.12,16.26-17.27,3.19-18.73,10.32-35.46,20.06-48.38v-.09c.27-4.5,1.59-8.5,3.54-11.7.88-2,1.46-4.45,1.46-6.94,0-4.67-1.49-8.48-4.21-11.03-3.49-2.76-6.16-5.4-8.71-8.61-5-7.88-9.97-13.51-15.28-17.11,0,0-3.07-1.05-.39,3.66,3.66,7.98,5.15,19,6,31.17"/>
        <path class="cls-1" d="m79.23,60.77c4.5,7.12,7.44,18.07,7.44,30.2,0,6.79-1.01,13.15-2.48,18.73-.57,2.12-6.71,22.36-7.94,27.43l5.51-1.18c1.76-5.59,3.74-10.87,5.88-15.9,3.59-7.98,6.71-19.28,5.87-31.08-.86-12.17-2.33-23.2-6-31.2-.31-.54-.53-1.11-.71-1.5-1.35-2.25-3.38-4-5.25-4.07-2.65-.14-4.01,2.78-3.05,6.53.17.63.46,1.47.74,2.04"/>
        <path class="cls-1" d="m41.51,183.68c.97,1.76,1.69,2.65,2.53,4.43-1.9-8.8-3.41-18.77-4.19-28.12-10.47-10.29-22.35-17.9-33.96-18.05-3.36-.05-8.92,2.92-3.84,4.81,14.91,5.53,29.44,18.83,39.46,36.93"/>
        <path class="cls-1" d="m55.16,223.03c-3.49-8.21-6.62-17.01-9.03-26.06-12.61-9.92-26.8-14.7-39.27-12.63-2.57.41-7.64,2.72-5.1,4.54,2.53,1.85,7.36,2.3,8.51,2.52,17.93,3.95,32.63,13.8,44.9,31.62"/>
        <path class="cls-1" d="m56.4,226.12c-15.6-9.63-32.35-12.42-45.35-6.18-1.94.92-3.31,3.45.36,4.39,3.68.92,7.59.92,15.13,2.52,16.25,3.45,34.29,12.72,47.8,30.51-6.83-9.21-12.9-20.03-17.95-31.24"/>
        <path class="cls-1" d="m87.37,274.47c-2.08-2.2-4.06-4.27-6.04-6.66,0,14.32-5.38,27.5-14.17,37.44-.35.75-.57,1.49-.57,2.36,0,3.18,2.58,5.76,5.76,5.76,2,0,3.63-.8,4.67-2.35,6.62-9.24,10.42-20.38,10.42-32.63,0-1.35.02-2.58-.08-3.92"/>
        <path class="cls-1" d="m127.8,269.43c0-.81-.03-1.62-.04-2.42l-2.8-2.63c.05.98.08,2.02.08,3.04,0,13.66-4.54,25.14-10.56,28.6-.65-.27-1.51-.45-2.24-.45-3.02,0-5.45,2.32-5.45,5.22s2.43,5.21,5.45,5.21,5.44-2.33,5.44-5.21c0-.27,0-.56-.03-.8,5.86-4.08,10.15-16.25,10.15-30.57"/>
        <path class="cls-1" d="m143.55,329l7.51-3.36,3.53,6.28,7.67-26.03c-2.01-.06-3.45-1.06-3.45-1.06l-15.25,24.17Z"/>
        <path class="cls-1" d="m80.71,140.04c.48-1.35.44-2.29-1.08-2.29s-7.36,3.82-8.26,7.23c-1.98,7.51-1.69,15.63-1.69,23.76,0,49.26,21.34,91.89,52.38,112.38.18-.66.35-1.37.49-2.04-27.49-19.62-46.21-58.24-46.21-102.69,0-12.68.54-25.22,4.36-36.35"/>
        <path class="cls-1" d="m144.99,277.3c-5.56-1.96-10.81-4.75-15.7-8.28v.41c0,3.06-.19,6.07-.56,8.92,8.37,5.1,17.46,8.45,26.98,9.69-2.51-5-5.5-8.65-10.72-10.73"/>
        <path class="cls-1" d="m123.3,274.72c.31-2.35.48-4.78.48-7.3,0-1.67,0-2.24-.06-2.91-14.77-13.26-25.44-33.93-29.74-58.68-1.08-8.55-6.64-14.85-14.28-18.08,2.84,37.56,19.8,69.62,43.59,86.97"/>
        <path class="cls-1" d="m56.35,147.89c0,61.83,26.35,114.95,64.06,138.23.36-.89.7-1.83,1.01-2.8-33.65-22.45-56.96-71.22-56.96-127.79,0-24.68,6.51-47.19,12.24-68.05,3.65-13.33-10.11-2.05-16.12,18.23-3.89,13.11-4.22,27.52-4.22,42.18"/>
        <path class="cls-1" d="m117.18,291.84c.73-.94,1.42-2.02,2.06-3.23-38.65-24.05-65.67-79.17-65.67-143.36,0-25.44,4.06-49.47,11.61-70.71-3.88-9.64-18.21,28.7-20.97,45.58-1.11,6.77-1.53,14.08-1.53,21.14,0,68.26,30.83,126.64,74.5,150.58"/>
        <path class="cls-1" d="m106.32,303.85c-.5-.9-.79-1.94-.79-3.06,0-3.42,2.69-6.24,6.13-6.58l-1.64-.7c-6.83-4.47-13.43-9.43-19.44-15.55,0,11.85-3.71,23.24-9.91,32.31l8.31-6.42h17.34Z"/>
        <polygon class="cls-1" points="150.28 312.43 92.34 312.43 94.65 315.2 150.28 315.2 150.28 312.43"/>
        <path class="cls-1" d="m144.9,290.94c.03-.21.11-.4.23-.55l.09-.23c-5.99-1.71-11.75-4.26-17.2-7.52-.13.62-.26,1.22-.41,1.85,5.45,3.02,11.16,5.38,17.06,7.01.07-.2.13-.4.22-.56"/>
        <path class="cls-1" d="m143.95,293.83c-5.84-1.63-11.5-4.02-16.91-7.06-.26.91-.54,1.79-.83,2.64,5.56,2.89,11.34,5.15,17.29,6.71.11-.78.26-1.55.45-2.29"/>
        <path class="cls-1" d="m143.28,299.17s0-.11,0-.15c-6.23-1.6-12.27-3.94-18.09-7-.47,1.1-.99,2.13-1.52,3.08,6.34,2.91,12.94,5.09,19.73,6.5-.08-.78-.13-1.6-.13-2.43"/>
        <path class="cls-1" d="m152.45,309.08c0-.33-.07-.61-.18-.88-1.83.49-3.8.79-5.8.79h-.86l-.38-.76c-.22-.47-.43-.95-.61-1.45h-29.39c-.87.41-1.85.63-2.88.63s-2-.23-2.88-.63h-20.03c-1.28,0-2.31,1.03-2.31,2.31s1.04,2.28,2.31,2.28h60.7c1.27,0,2.31-1.02,2.31-2.28"/>
        <path class="cls-1" d="m212.91,81.54c-2.73,2.55-4.22,6.36-4.22,11.03,0,2.48.57,4.93,1.45,6.93,1.95,3.2,3.28,7.2,3.54,11.7v.08c9.74,12.92,16.86,29.65,20.07,48.38,2.07,8.14,8.24,14.89,16.25,17.26-1.34-21.69-6.2-39.52-12.85-55.2-3.59-7.97-6.69-19.28-5.86-31.08.86-12.17,2.33-23.18,5.99-31.16,2.68-4.72-.39-3.65-.39-3.65-5.31,3.59-10.29,9.22-15.28,17.09-2.55,3.21-5.24,5.85-8.71,8.6"/>
        <path class="cls-1" d="m239.92,120.05c2.14,5.03,4.12,10.31,5.89,15.9l5.5,1.18c-1.22-5.07-7.36-25.31-7.93-27.43-1.46-5.58-2.49-11.93-2.49-18.73,0-12.1,2.93-23.08,7.44-30.2.28-.57.56-1.4.74-2.04.95-3.75-.41-6.67-3.05-6.53-1.88.08-3.9,1.83-5.26,4.08-.16.39-.4.96-.71,1.5-3.65,8.01-5.14,19.03-5.99,31.2-.84,11.79,2.28,23.09,5.87,31.07"/>
        <path class="cls-1" d="m164.43,290.93c2.36-8.99,9.1-16.24,17.83-19.23,23.19-9.19,41.42-35.01,47.36-67.14,1.96-9.67,9.03-17.85,18.25-21.12.05-1.03.07-2,.1-3.04-8.63-2.86-15.38-9.67-17.86-18.46-6.64-41.91-33.97-73.14-66.48-73.14s-59.43,31.23-66.28,72.78c-2.49,8.85-9.31,15.94-18.03,18.82.02,1.04.06,1.9.11,2.93,9.19,2.88,16.14,10.18,18.12,19.93,5.5,33.76,24.28,60.11,48.4,68.91,8.14,3.22,14.41,10.16,16.66,18.76h1.81Zm-54.53-108.92c0-31.94,14.73-58.99,35.42-69.24,5.14,2.4,11.38,3.96,18.16,3.96s13.25-1.52,18.4-3.94c20.6,10.31,35.42,37.37,35.42,69.22,0,40.73-24.04,73.77-53.7,73.77s-53.7-33.04-53.7-73.77"/>
        <path class="cls-1" d="m321.66,141.94c-11.6.15-23.49,7.76-33.95,18.05-.8,9.35-2.3,19.32-4.19,28.12.84-1.79,1.55-2.67,2.52-4.43,10.03-18.1,24.55-31.41,39.47-36.93,5.07-1.89-.48-4.86-3.85-4.81"/>
        <path class="cls-1" d="m320.7,184.34c-12.47-2.06-26.67,2.71-39.26,12.63-2.43,9.05-5.55,17.86-9.05,26.06,12.27-17.82,26.98-27.68,44.91-31.62,1.14-.23,5.97-.67,8.5-2.52,2.52-1.83-2.53-4.14-5.1-4.54"/>
        <path class="cls-1" d="m316.5,219.95c-12.99-6.24-29.75-3.45-45.35,6.18-5.05,11.22-11.11,22.03-17.93,31.24,13.49-17.79,31.53-27.06,47.78-30.51,7.56-1.61,11.47-1.61,15.15-2.52,3.67-.94,2.31-3.46.36-4.39"/>
        <path class="cls-1" d="m246.24,267.82c-1.98,2.38-3.96,4.46-6.05,6.66-.1,1.33-.07,2.58-.07,3.92,0,12.25,3.78,23.39,10.42,32.63,1.02,1.55,2.68,2.35,4.67,2.35,3.18,0,5.77-2.58,5.77-5.76,0-.87-.24-1.61-.57-2.36-8.79-9.94-14.17-23.12-14.17-37.44"/>
        <path class="cls-1" d="m215.32,306.01c3.01,0,5.45-2.33,5.45-5.22s-2.44-5.22-5.45-5.22c-.74,0-1.61.18-2.25.45-6-3.46-10.55-14.93-10.55-28.6,0-1.02.04-2.05.08-3.04l-2.79,2.63c-.04.8-.05,1.61-.05,2.42,0,14.32,4.28,26.5,10.16,30.57-.05.24-.04.52-.04.8,0,2.88,2.44,5.22,5.44,5.22"/>
        <path class="cls-1" d="m165.31,305.89l7.67,26.03,3.51-6.28,7.52,3.36-15.25-24.17s-1.44,1-3.46,1.06"/>
        <path class="cls-1" d="m257.88,168.74c0-8.12.28-16.25-1.71-23.75-.88-3.41-6.71-7.23-8.25-7.23s-1.56.93-1.08,2.28c3.82,11.13,4.35,23.67,4.35,36.35,0,44.45-18.7,83.07-46.2,102.69.16.66.32,1.38.49,2.04,31.04-20.49,52.39-63.11,52.39-112.38"/>
        <path class="cls-1" d="m182.57,277.3c-5.22,2.08-8.22,5.73-10.71,10.73,9.53-1.24,18.61-4.59,26.98-9.69-.37-2.85-.57-5.86-.57-8.92v-.41c-4.88,3.54-10.13,6.32-15.7,8.28"/>
        <path class="cls-1" d="m233.58,205.83c-4.3,24.75-14.96,45.41-29.74,58.67-.06.68-.05,1.26-.05,2.92,0,2.52.16,4.95.47,7.3,23.8-17.35,40.76-49.42,43.59-86.98-7.64,3.24-13.2,9.54-14.27,18.08"/>
        <path class="cls-1" d="m263.1,155.53c0,56.57-23.31,105.34-56.97,127.79.32.97.66,1.92,1.02,2.8,37.71-23.28,64.07-76.39,64.07-138.23,0-14.65-.35-29.1-4.24-42.18-6.02-20.27-19.78-31.56-16.11-18.23,5.71,20.85,12.23,43.37,12.23,68.05"/>
        <path class="cls-1" d="m208.31,288.61c.64,1.21,1.33,2.3,2.06,3.23,43.67-23.94,74.51-82.32,74.51-150.58,0-7.07-.43-14.38-1.54-21.15-2.76-16.88-17.09-55.22-20.96-45.58,7.54,21.24,11.6,45.27,11.6,70.71,0,64.18-27.03,119.31-65.67,143.36"/>
        <path class="cls-1" d="m217.54,293.52l-1.62.7c3.43.34,6.12,3.16,6.12,6.58,0,1.12-.29,2.16-.79,3.06h17.33l8.33,6.42c-6.2-9.07-9.91-20.46-9.91-32.31-6.02,6.12-12.62,11.08-19.45,15.55"/>
        <polygon class="cls-1" points="177.27 315.2 232.91 315.2 235.21 312.43 177.27 312.43 177.27 315.2"/>
        <path class="cls-1" d="m199.54,282.64c-5.47,3.26-11.22,5.81-17.2,7.52l.09.23c.12.15.2.34.24.55.08.16.15.37.22.56,5.91-1.63,11.62-3.99,17.07-7-.15-.63-.29-1.23-.41-1.85"/>
        <path class="cls-1" d="m201.35,289.4c-.28-.85-.56-1.73-.82-2.63-5.43,3.04-11.07,5.43-16.91,7.06.19.75.33,1.51.45,2.3,5.95-1.57,11.73-3.83,17.29-6.72"/>
        <path class="cls-1" d="m202.37,292.02c-5.82,3.05-11.87,5.4-18.09,7v.15c0,.83-.03,1.65-.13,2.43,6.78-1.42,13.39-3.59,19.74-6.5-.54-.95-1.05-1.98-1.51-3.08"/>
        <path class="cls-1" d="m238.12,306.77h-20.02c-.88.41-1.86.63-2.89.63s-2-.23-2.88-.63h-29.39c-.18.49-.38.98-.6,1.45l-.39.76h-.85c-2,0-3.97-.29-5.79-.78-.12.27-.19.57-.19.88,0,1.27,1.04,2.28,2.31,2.28h60.69c1.27,0,2.31-1.02,2.31-2.28s-1.04-2.31-2.31-2.31"/>
        <path class="cls-1" d="m146.29,290.04c-.96,2.17-1.64,4.97-1.64,8.02,0,3.28.72,6.21,1.81,8.43,5.18,0,9.79-1.88,12.33-4.58-.2-1.23-.29-2.52-.29-3.85,0-1.16.14-2.3.3-3.39-2.52-2.77-7.28-4.63-12.51-4.63"/>
        <path class="cls-1" d="m181.28,306.49c1.09-2.22,1.8-5.15,1.8-8.43,0-3.05-.67-5.85-1.62-8.02-5.23,0-9.99,1.86-12.5,4.63.15,1.08.29,2.23.29,3.39,0,1.33-.09,2.62-.28,3.85,2.53,2.7,7.15,4.58,12.32,4.58"/>
        <path class="cls-1" d="m168.3,298.06c0-1.33-.1-2.69-.31-3.88-1.02-.54-2.41-.92-3.95-.92-1.7,0-3.16.36-4.2,1-.21,1.22-.27,2.48-.27,3.81,0,1.53.13,2.95.41,4.31,1.03.57,2.46.86,4.06.86,1.45,0,2.81-.32,3.81-.8.27-1.33.46-2.84.46-4.38"/>
        <path class="cls-1" d="m134.94,159.33c.02,2.79.66,5.71,2,8.49,2.74,5.79,8.07,9.7,13.18,10.62,5.46.64,7.16,4.43,7.16,9.8v23.05c5.11.42,10.97-.34,13.08.52v-23.56c0-5.37,1.7-9.15,7.16-9.8,5.11-.92,10.44-4.84,13.18-10.62,1.35-2.78,1.98-5.69,2.02-8.49,1.83-1.94,2.95-4.59,2.95-7.47,0-2.14-.62-4.15-1.7-5.85.43-1.16.66-2.42.66-3.75,0-5.12-3.58-9.44-8.39-10.6.04-.29.05-.59.05-.89,0-4.14-3.34-7.49-7.48-7.49-.81,0-1.59.14-2.32.39-1.19-2.16-3.49-3.63-6.13-3.63-1.02,0-1.98.23-2.87.63l.03-.14c-1-.93-2.36-1.51-3.86-1.51s-2.82.58-3.83,1.51c-.8-.3-1.65-.49-2.55-.49-2.63,0-4.93,1.46-6.12,3.63-.73-.25-1.52-.39-2.32-.39-4.14,0-7.49,3.36-7.49,7.49,0,.31.02.6.06.89-4.81,1.16-8.38,5.48-8.38,10.6,0,1.33.22,2.59.66,3.75-1.08,1.71-1.71,3.71-1.71,5.85,0,2.88,1.13,5.53,2.97,7.47m40.51,14.67s.61,1.72,1.42,1.62l-4.45,2.02-2.83,1.32,2.53-3.04.81-1.32s1.01-.61,2.53-.61m-6.37-4.05l-.51-2.53s2.83-.91,3.85-.71l-2.43,4.35-2.93,2.53,2.02-3.64Zm-8.4-5.52l1.68,5.87-.84,3.77-.88-4.86-4.35-4.78s2.72.84,4.4,0m-6.59,6.57l3.18,2.32,1.01,5.44-3.98-3.35-5.45-2.51c3.35,1.26,5.24-1.89,5.24-1.89"/>
        <path class="cls-1" d="m136.18,197.17s.41.06,1.04,1.4c.27.59,1.6.54,1.62-.57,0-.42,1.1-.42,1.1-.42v1.59h-.04s-.24.4-.12.9l.24.02c-.17.13-.32.25-.47.4-.26.29-.49.64-.81.84-.38.26-.82.47-1.26.62-.4.14-.72.42-.7.77.05.43.35.56.72.56.3.02.61.04.92,0,.8-.08,1.32-.7,1.91-1.15.69-.54,1.37-1.15,2.15-1.5.56-.23,1.14-.4,1.73-.59l.49.03s0-.08.02-.15c.18-.05.35-.1.54-.15l.75.02s.02-.08.02-.22c1.01-.27,2.03-.52,3.04-.8.57-.13,1.12-.35,1.68-.55.15-.08.29-.17.43-.29.07.1.14.18.24.29.36-.36.72-.7,1.11-1.07.07.3.21.56.18.78-.14.96-.52,1.81-1.06,2.59-.74,1.07-1.53,2.09-2.29,3.13-.46.67-.88,1.32-.88,2.19,0,.35-.1.76-.25,1.1-.21.46-.57.87-.75,1.34-.12.26-.06.62-.08.94.35,0,.7.04,1-.05.88-.32,1.25-1.1,1.55-1.92.31-.87.61-1.77,1.22-2.49.67-.81,1.33-1.6,2.03-2.37.9-.99,1.38-2.36,2.17-3.43,0,0,.42-8.47.42-9.48,0-1.65-.33-5.02-.33-5.02-.61-.16-1.22-.37-1.83-.61-1.06-.47-2.15-.73-3.32-.51-.05.01-.14-.01-.15-.02-.11-.41-.4-.2-.58-.15-.72.11-1.44.23-2.22.36.06-.18.11-.25.2-.48-.36.17-.6.29-.86.41-.18.08-.41.24-.5.17-.39-.27-.59.1-.86.22-.14.06-.29.16-.42.28-.19.15-.35.11-.47-.06-.44-.65-1.21-.61-1.85-.94.12.38.29.73.47,1.03.29.52.24.55-.23.84-.53.31-1.05.65-1.53,1.02-.34.28-.61.66-.94.95-.34.26-.35.65-.29,1.05.03.16-.02.4-.12.51-.31.37-.68.67-.99,1.03-.32.35-.6.67-.86,1.01-.09.11-.12.38-.06.43.22.2.43.36.64.53,0,.01-.04.04-.05.08-.04-.03-.1-.07-.15-.07-.19,0-.33.17-.33.36-.16,0-.27.1-.3.23h-.09c-.17,0-.32.14-.32.32v.02c-.15.02-.26.12-.28.26l-.08-.02c-.19,0-.33.14-.33.35,0,.02,0,.04.01.06-.18,0-.33.15-.34.32,0,.04.02.05.02.08-.12.05-.22.16-.22.32h0c-.17.02-.31.15-.31.31,0,.08.01.1.05.18-.15.02-.26.15-.26.3-.02.09.02.17.08.24-.06.04-.11.12-.11.22,0,.07.04.14.08.19-.1.06-.15.16-.15.26,0,.08,0,.11.04.18-.04.04-.08.14-.08.22,0,.06.02.11.06.19-.02.04-.04.09-.04.13-.01.13.07.25.19.32-.07.19-.26.62-.52.92-.12.15.56.25.95-.29m8.8.43c-.13.06-.25.11-.37.17l.03-1.12h.35s0,.94,0,.94Zm.14-6.1c.9.28,1.78.53,2.67.85.56.21.99.58.89,1.31-.05.34.07.71.1,1.07,0,.16-.05.4-.16.46-.92.63-1.82,1.3-2.76,1.87v-1.27s.63-.12.9-.61c.03.08.08.13.14.16.16.05.33-.03.4-.17.11-.02.24-.1.28-.22.06-.14-.02-.34-.19-.4h-.07c.04-.14-.05-.32-.19-.35-.1-.05-.2-.01-.27.04,0-.02,0-.05,0-.06,0-.08-.02-.17-.09-.25.01-.01.01-.02.01-.04,0-.1-.06-.2-.15-.28.01-.01.01-.02.01-.05,0-.15-.11-.27-.25-.31,0-.03.02-.05.02-.08,0-.19-.14-.33-.33-.33,0-.15-.08-.27-.22-.31v-.04c0-.18-.13-.32-.32-.32h-.02c-.02-.18-.15-.32-.33-.32-.06,0-.12.04-.17.05-.02-.15-.15-.29-.31-.32-.04,0-.06.02-.08.02-.03-.15-.17-.27-.33-.28-.04,0-.07.01-.12.01,0-.05-.05-.1-.07-.15.33.09.67.19,1.01.29m1.74,3.27v-.02h.02s-.02.02-.02.02Zm-3.13-3.64s-.05.02-.07.04c-.01-.02-.04-.04-.04-.04h.11Zm-.81,5.04c.79-.05.79.68.79.68l-.03,1.32c-.49.2-1,.4-1.49.59,0,.02-.01.03-.02.03l.02-1.94s-.05-.62.73-.68m-2.07,1.18l.4.03-.02,1.86c-.11.07-.24.12-.35.18-.02-.05-.02-.1-.07-.16l.03-1.91Z"/>
        <path class="cls-1" d="m186.88,203.52c-.02-.09-.08-.17-.12-.27-.36-.68-.79-1.34-1.05-2.07-.57-1.68-1.08-3.38-1.62-5.05-.22-.68-.7-1.29-1.62-1.31-.45,0-.9.01-1.34.01-.46,0-.88-.12-1.1-.48-.39-.62-.66-1.29-.98-1.94.18.04.29.1.39.2.48.48,1.01.86,1.7.94.41.04.71.27,1.04.45.53.31,1.1.54,1.67.74.16.08.41-.11.54-.05.67.3,1.34.67,2.13.32-.4-1.59-1.37-2.65-2.9-3.22-.79-.3-1.59-.57-2.35-.93-1.18-.52-1.98-1.48-2.81-2.4-1.05-1.17-2.32-1.88-3.85-2.08-.54-.1-1.13-.04-1.63-.21-.47-.14-.34-.11-.82-.23,0,0-.64,1.66-.64,3.51,0,.77.21,7.02.21,7.02.13.11.07.14.2.23,1,.67,2.07,1.09,3.2,1.49.84.29,1.66.66,2.13,1.47.38.62.73,1.32.98,1.99.49,1.45.68,2.86-.8,3.92-.23.16-.37.48-.46.77-.11.37.04.56.43.52.47-.07.95-.09,1.38-.26,1.01-.45,1.64-1.15,1.6-2.38-.02-.45-.1-.9-.15-1.32-.17-1.49-.34-2.96-.49-4.42-.1-.9-.53-1.47-1.41-1.7,0,0-.03-.04-.06-.14.37.06.69.14,1.03.17,1.56.18,2.77.94,3.61,2.22.67,1.05,1.12,2.21,1.32,3.45.14.85.56,1.53,1.3,2,.3.18,1.06.23,1.24.02.27-.31.2-.67.08-1.02"/>
        <path class="cls-1" d="m168.07,223.19s0,0,0,0c0,0,0,0,.02,0,0,0-.01-.01-.01-.01"/>
        <path class="cls-1" d="m158.32,242.06s.07,0,.1,0c.21,0,.43-.05.66-.09.17-.03.35-.06.53-.08.08,0,.17-.02.25-.02.13-.01.25-.02.37-.04.36-.07.7-.26,1.03-.44.29-.16.65-.36.84-.59.1-.12.11-.13-.15-.49-.49-.7-.9-1.48-1.22-2.32-.08-.2-.12-.42-.15-.64-.06-.36-.12-.7-.33-.84-.04-.03-.1-.03-.14-.03-.37,0-1.06.35-1.75.89l-.05.04c-.31.24-1.13.88-.98,1.19.02.05.14.15.23.21.21.17.49.4.56.79.03.16,0,.31-.02.43-.13.62-.45,1.22-.9,1.73-.04.05-.1.09-.15.11.03,0,.05,0,.08.01.4.1.82.19,1.21.19"/>
        <path class="cls-1" d="m168.14,223.26c.04.05.1.14.18.24-.07-.1-.14-.18-.18-.24"/>
        <path class="cls-1" d="m184.9,240.06c-1.32-.92-3.38-.64-4.88-1.34-.25-.12-.49-.27-.62-.48-.41-.68,1.02-1.15,1.6-1.38.75-.29,1.56-.48,2.39-.55.09,0,.18-.02.28-.02.03,0,.06,0,.08,0,.07,0,.15-.01.22-.02.04,0,.08,0,.12,0,.07,0,.14,0,.21,0,.04,0,.09,0,.14,0,.06,0,.12,0,.18,0,0,0,.01,0,.01,0,.06,0,.13,0,.19,0,.05,0,.1,0,.15,0,.07,0,.13.01.19.02.05,0,.09,0,.14.01.07,0,.14.02.2.03.04,0,.07.01.11.02.1.02.19.05.28.08-.19-.07-.39-.13-.59-.19-.06-.02-.12-.03-.19-.05-.14-.04-.28-.07-.42-.1-.07-.01-.14-.03-.21-.04-.14-.02-.29-.04-.43-.06-.07,0-.13-.01-.19-.02-.2-.02-.4-.03-.6-.03,0,0-.01,0-.02,0h-.02c-.16,0-.32,0-.47.02-.05,0-.1,0-.15.01-.12.01-.24.02-.36.04-.05,0-.1.01-.14.02-.16.02-.32.05-.49.09-.78.17-1.43.67-2.22.8-.07,0-.13.01-.19.01,0,0-.01,0-.02,0,0,0-.01,0-.02,0-.09,0-.17-.01-.25-.03,0,0-.01,0-.02,0-.08-.02-.15-.05-.22-.08,0,0,0,0-.01,0-.07-.04-.13-.08-.19-.13,0,0-.01-.01-.02-.02-.06-.05-.11-.1-.16-.15,0,0-.02-.02-.03-.02-.05-.05-.1-.11-.15-.17,0-.01-.02-.02-.03-.03-.05-.06-.09-.12-.14-.18-.05-.07-.1-.13-.15-.2,0,0,0-.01-.01-.02-.05-.06-.1-.12-.15-.18-.32-.36-.65-.7-.98-1.04-.65-.65-1.33-1.28-2.06-1.87-.53-.43.8-.65.12-.91-.73-.28.5-.62-.25-.85-2.34-.74-3.79-4.32-4.33-6.22-.06.02-.12.03-.17.03,0,0,0,0,0,0-.05,0-.11,0-.16-.02-.01,0-.02,0-.03-.01-.05-.01-.09-.03-.14-.05-.02,0-.04-.02-.06-.03-.03-.02-.07-.04-.11-.06-.02-.01-.05-.03-.07-.04-.03-.02-.07-.04-.1-.07-.02-.02-.05-.04-.07-.06-.03-.02-.06-.05-.09-.08-.02-.02-.05-.04-.07-.07-.03-.03-.06-.05-.09-.08-.02-.02-.05-.04-.07-.07-.03-.03-.06-.06-.09-.09-.02-.02-.04-.05-.06-.07-.03-.03-.05-.06-.08-.09-.02-.02-.04-.05-.06-.07-.03-.03-.05-.06-.08-.09-.02-.02-.04-.04-.05-.07-.02-.03-.05-.06-.07-.09-.01-.02-.03-.04-.04-.06-.02-.03-.05-.06-.07-.09-.07-.1-.14-.18-.18-.23,0,0,0,0-.01-.01-.01-.02-.03-.03-.03-.04,0,0,0,0,0,0,0,0-.01-.01-.02,0-4.18,3.53-7.44,3.63-10.03,3.86-.82,1.6-2.23,2.98-4.03,3.91-1.2.62-2.49,2.09-3.52,3.72-.22.35-.44.72-.63,1.08-.04.07-.07.14-.11.21-.2.38-.36.73-.84.96-.04.02-.09.05-.14.09-.1.07-.21.17-.31.27-.16.16-.31.33-.42.46-.08.09-.13.16-.16.2-.05.05-.08.1-.12.14-.18.21-.34.4-.53.6-.08.09-.17.18-.27.27-.15.14-.4.25-.67.35-.18.07-.36.13-.52.19-.14.05-.26.11-.36.18-.88.58-1.81,1.14-2.75,1.66-1.06.59-2.16,1.15-3.32,1.61,1.29-.37,2.55-.86,3.75-1.39.56-.25,1.11-.51,1.65-.78.05-.03.1-.05.15-.08.03-.02.06-.03.09-.05.04-.02.07-.04.11-.06.04-.02.07-.04.11-.06.02-.01.04-.02.06-.03.05-.03.11-.06.16-.08,0,0,0,0,.01,0,.05-.02.1-.04.15-.05.02,0,.04,0,.05-.01.04,0,.08-.02.12-.02.02,0,.04,0,.06,0,.01,0,.03,0,.04,0,.03,0,.05,0,.08,0,.02,0,.04,0,.06,0,.06.01.12.03.18.05.93.4.81,1.39.67,2.09-.07.37-.13.92-.38,1.25.48-.64.76-1.36.8-2.11.02-.3,0-.59-.05-.89-.04-.24-.23-.6-.1-.83.15-.25.46-.43.63-.67.13-.18.2-.35.38-.51.4-.36.88-.97,1.5-1.07.05,0,.09-.01.14-.01,0,0,0,0,.01,0,.02,0,.04,0,.06,0,.03,0,.06,0,.08.01.02,0,.04.01.06.02.02,0,.05.02.07.03.02,0,.04.02.06.03.02.01.04.02.07.04.02.01.03.03.05.04.02.01.04.03.06.05.02.02.03.03.05.05.02.02.04.04.05.06.01.02.03.04.04.05.02.02.03.04.05.07.01.02.02.04.04.06.01.02.03.05.04.07.01.02.02.04.03.06.01.02.03.05.04.08,0,.02.02.04.03.06.01.03.02.05.03.08,0,.02.02.04.02.06,0,.03.02.05.03.08,0,.02.01.04.02.06,0,.03.02.05.02.08,0,.02.01.04.02.06,0,.03.01.05.02.08,0,.02.01.04.01.06,0,.03.01.05.02.08,0,.02,0,.03,0,.05,0,.03.01.05.01.08,0,.01,0,.03,0,.04,0,.04.01.07.01.1.13.95-.2,2.02-.86,2.81.12-.09.24-.19.36-.3.68-.64,1.03-1.44,1.02-2.28-.01-.75-.39-1.34-.61-2.04-.31-1,.18-1.99.97-2.81.55-.58,1.25-1.08,1.92-1.44.15-.08.31-.16.47-.23.05-.02.11-.04.17-.07.11-.05.21-.09.32-.13.07-.02.14-.05.21-.07.1-.03.2-.07.3-.1.08-.02.15-.04.23-.06.1-.02.19-.05.29-.07.08-.02.16-.03.24-.05.1-.02.19-.04.29-.06.08-.01.17-.02.25-.03.1-.01.19-.03.29-.04.09,0,.17-.01.26-.02.1,0,.19-.02.29-.02.09,0,.17,0,.26,0,.09,0,.18,0,.27,0h.04c.83,0,1.64.33,2.13.89.24.27.44.62.46.95.02.21-.07.39-.21.55-.52.59-1.84.94-2.42,1.34-1.16.82-1.9,1.96-2.35,3.14-1.68,4.44-3.76,4.55-3.76,4.55.01,0,.03,0,.04,0,.7-.04,1.36-.37,1.87-.74.58-.41,1.04-.93,1.41-1.47.26-.38.48-.77.67-1.18.1-.22.29-1.1.64-1.14,0,0,.02,0,.02,0,.01,0,.03,0,.05,0,0,0,.02,0,.03,0,.03,0,.05.02.08.03.48.22.62.73.61,1.18-.01.35-.1.7-.31,1,.4-.44.67-.96.79-1.5.02-.08.03-.16.02-.24-.06-.35-.58-.53-.74-.86-.33-.69.62-1.41,1.17-1.84.04-.03.09-.07.15-.11.01,0,.02-.02.03-.02.06-.04.12-.09.19-.13l.04-.02c.07-.05.14-.09.21-.14,0,0,.01,0,.02-.01.08-.05.16-.1.24-.15.02,0,.03-.02.05-.03.08-.05.17-.09.26-.13.01,0,.02-.01.04-.02.08-.04.16-.07.24-.1.01,0,.03-.01.04-.01.09-.03.17-.05.25-.07.02,0,.04,0,.05-.01.08-.02.17-.03.24-.03h0s.01,0,.02,0c.06,0,.12,0,.18.02.02,0,.03,0,.05.01.06.02.12.04.18.08.55.38.48,1.2.67,1.71.29.77.67,1.51,1.16,2.21.28.4.47.69.13,1.1-.24.3-.62.51-.98.71-.37.2-.75.41-1.18.49-.21.04-.43.05-.65.07-.41.05-.81.16-1.23.18-.04,0-.08,0-.12,0-.05,0-.1,0-.15,0-.05,0-.1,0-.14,0-.07,0-.15-.02-.22-.03-.04,0-.09-.01-.13-.02-.08-.01-.16-.03-.25-.05-.03,0-.07-.01-.1-.02-.11-.02-.23-.05-.34-.08.06.03.13.06.19.09.02.01.05.02.07.03.04.02.09.04.13.06.02.01.05.02.08.03.04.02.08.04.12.05.03.01.06.02.09.03.04.02.08.03.12.04.03.01.06.02.09.03.04.01.08.02.12.04.03,0,.06.01.09.02.04,0,.08.02.12.03.03,0,.07,0,.1.01.04,0,.08.01.12.02.03,0,.07,0,.1,0,.05,0,.1,0,.15,0,.11,0,.21-.01.31-.03.06,0,.11-.02.17-.03.07-.01.15-.02.22-.04.07-.01.14-.02.21-.03.04,0,.08,0,.12,0,.05,0,.11-.01.17-.01h.05c.09,0,.18.01.26.05.12.07.17.19.19.31.11.58-.21,1.15-.52,1.68.76-.39.74-1.29,1.21-1.91.05-.07.11-.13.17-.19.02-.02.04-.04.07-.05.04-.04.08-.08.13-.11.03-.02.06-.04.09-.05.04-.03.08-.06.13-.08.03-.02.07-.03.1-.05.05-.02.09-.04.14-.06.04-.02.08-.03.11-.04.05-.01.09-.03.14-.04.04,0,.08-.02.12-.03.05-.01.1-.02.14-.03.04,0,.09-.01.13-.02.05,0,.1-.01.15-.02.04,0,.09,0,.13,0,.04,0,.08,0,.12,0,.02,0,.04,0,.06,0,.05,0,.27,1.85.32,1.97.11.27.34.5.56.72.61.61,1.18,1.25,1.7,1.92.11.14.22.28.28.44.14.36,0,.74-.12,1.1.17-.38.34-.76.39-1.15s-.04-.82-.35-1.14c-.13-.14-.3-.24-.46-.36-.83-.64-1.21-1.63-1.04-2.55.1-.51.3-.94.32-1.47.02-.51-.01-1.03-.17-1.53-.06-.2-.1-.39-.15-.58.74.1,1.47.29,2.13.59.67.3,1.01.56.9,1.23-.05.3-.14.6-.08.9.03.16.11.32.16.48.17.54.02,1.14-.39,1.58.61-.46.87-1.2.65-1.85-.05-.16-.13-.32-.16-.48,0-.05,0-.09,0-.13,0-.01,0-.02,0-.04,0-.03.01-.06.03-.08,0-.01,0-.02.01-.03.02-.03.04-.07.07-.09,0,0,0,0,0,0,.03-.03.06-.05.09-.07,0,0,.02-.01.03-.02.03-.01.06-.02.09-.03.01,0,.02,0,.03-.01.04,0,.08-.01.13-.01h0s.07,0,.1.01c.02,0,.04,0,.05,0,.06.01.11.03.17.06.37.19.71.42,1.08.62.42.21.8.44,1.17.7.19.13,1,.68.98.89.04-.4-.31-.76-.7-1.01-.39-.25-.84-.43-1.17-.74-.32-.29-.49-.7-.74-1.04-.25-.33-.54-.64-.86-.92-.7-.6-1.57-1.05-2.5-1.36-1.01-.33-1.54-.68-1.51-1.61.03-.77.15-1.54.34-2.29.03-.14.07-.28.11-.42.03-.11.08-.23.13-.33,0,0,0-.02.01-.03.05-.1.12-.2.19-.29,0-.01.02-.02.03-.04.07-.09.15-.17.23-.25.01-.01.03-.02.04-.04.09-.08.18-.14.27-.21.02,0,.03-.02.05-.03.1-.06.2-.12.31-.17.02,0,.03-.01.05-.02.11-.05.23-.09.35-.13.01,0,.03,0,.04-.01.13-.04.26-.06.39-.08,0,0,.01,0,.02,0,.13-.02.27-.03.41-.03,0,0,.01,0,.02,0h0c.08,0,.17,0,.25.01,1.68.14,3.31.59,4.74,1.33.32.17.81.42,1.25.72.71.48,1.32,1.1.97,1.72-.18.33-.3.7-.44,1.05-.2.5-.55,1.07-.6,1.61-.12,1.37,1.12,2.3,1.39,3.59.07.36.04.72-.06,1.07.15-.2.32-.39.4-.61.39-1.01-1.11-2.05-.68-3.06,1.29.11,2.44.98,2.68,2.02.05.2.07.41.2.58.41-.29.39-.84.11-1.23s-.73-.65-1.15-.94c-.26-.18-.5-.37-.73-.57-.25-.22-.49-.46-.6-.75,0-.03-.02-.06-.02-.1,0-.01,0-.03,0-.04,0-.03,0-.05,0-.08,0-.02,0-.04,0-.06,0-.03,0-.06,0-.09,0-.02,0-.04,0-.07,0-.03,0-.07.01-.1,0-.02,0-.05.01-.08,0-.03,0-.07.02-.11,0-.03,0-.05.01-.08,0-.04.01-.07.02-.11,0-.03.01-.05.02-.08,0-.04.02-.07.03-.11,0-.03.02-.06.02-.08.01-.04.02-.08.04-.11,0-.03.02-.05.03-.08.01-.04.03-.08.04-.11.01-.02.02-.05.03-.07.02-.04.04-.08.06-.12,0-.01.02-.03.02-.05.03-.05.06-.1.09-.14,0,0,.01-.02.02-.02.03-.03.05-.07.08-.09.01-.01.03-.02.04-.03.02-.02.04-.04.07-.06.01-.01.03-.02.05-.02.02-.01.04-.02.07-.03.02,0,.03,0,.05,0,.01,0,.03,0,.04,0,.01,0,.02,0,.03,0,0,0,.02,0,.03,0,.04,0,.08.02.12.04.23.13.4.43.59.6.2.18.42.35.65.5.46.3.97.55,1.52.73.32.11.65.19.96.31.66.26,1.19.7,1.7,1.13.75.64,1.52,1.31,1.86,2.14.18-.34.16-.74-.06-1.07-.19-.3-.53-.52-.78-.79-.25-.27-.4-.65-.18-.94.07-.02.15-.03.22-.04.02,0,.05,0,.07,0,.05,0,.1,0,.15,0,0,0,0,0,.01,0,.01,0,.02,0,.04,0,.08,0,.16,0,.24.02.02,0,.05,0,.07.01.09.01.18.03.27.06,0,0,.02,0,.03.01.08.02.16.05.24.08.02,0,.04.02.07.03.09.04.17.07.25.12.48.26.86.63,1.23,1,.39.38.77.76,1.15,1.14-.21-.75-.56-1.51-1.27-2.01"/>
        <path class="cls-1" d="m157.53,235.61c-1.13.8-1.99,1.93-2.53,3.37-1.52,4-3.32,4.22-3.33,4.22-.27.01-.47.24-.47.51s.23.49.5.49h0s.05,0,.07,0c.87-.04,1.64-.47,2.14-.83.57-.41,1.07-.93,1.53-1.59.26-.38.5-.78.71-1.24.04-.08.07-.18.11-.3.03-.1.1-.31.17-.46.18.18.19.47.18.61-.01.29-.08.54-.22.73-.15.22-.11.51.1.68.08.07.18.1.28.11-.11.06-.21.15-.25.28-.09.24.03.51.26.62.51.24,1.13.54,1.85.54.03,0,.05,0,.08,0,.23,0,.44-.05.65-.08.19-.04.37-.07.54-.07h.01c.04.38-.18.81-.47,1.3-.11.19-.08.43.07.6.1.1.23.16.36.16.08,0,.16-.02.23-.06.64-.33.87-.92,1.06-1.39.1-.25.19-.48.33-.67.23-.3.63-.5,1.13-.56.03.2.06.43.09.62.11.8.13.92.18,1.02.14.35.41.62.64.86l.03.03c.59.6,1.15,1.23,1.66,1.87.09.12.17.22.2.31.07.18-.01.45-.12.76-.09.25.04.53.29.63.06.02.12.04.19.04.19,0,.37-.11.46-.3.18-.39.37-.82.43-1.3.07-.6-.11-1.15-.49-1.55-.12-.12-.26-.22-.38-.31-.04-.03-.08-.06-.13-.09-.67-.52-.99-1.3-.85-2.06.03-.17.08-.34.13-.52.09-.31.18-.64.2-1.02.02-.56-.02-1.05-.13-1.51.44.1.86.24,1.24.41.67.3.66.41.61.69-.01.06-.02.13-.04.19-.05.26-.11.56-.04.89.03.14.08.27.12.38.02.05.04.1.05.15.12.37,0,.78-.28,1.09-.18.19-.18.48,0,.68.1.11.23.16.37.16.11,0,.21-.03.3-.1.78-.59,1.11-1.55.83-2.41-.02-.06-.04-.12-.07-.18-.02-.06-.05-.12-.06-.17.02,0,.04.01.08.03.17.09.33.19.51.29.18.11.37.22.57.32.43.22.79.43,1.11.66l.06.04c.49.34.66.5.72.57.05.19.22.34.43.37.02,0,.04,0,.05,0,.25,0,.47-.19.5-.45.06-.54-.27-1.07-.92-1.48-.15-.09-.3-.18-.44-.26-.25-.14-.49-.27-.66-.42-.15-.14-.27-.34-.4-.54-.09-.14-.17-.28-.28-.42-.27-.36-.59-.7-.94-1-.73-.62-1.63-1.11-2.67-1.45-1.01-.33-1.18-.58-1.16-1.11.03-.77.15-1.54.36-2.31h-.52c-.19.75-.31,1.52-.34,2.29-.04.93.5,1.27,1.51,1.61.94.31,1.8.76,2.5,1.36.33.28.62.59.87.92.25.34.42.74.74,1.04.33.3.78.49,1.17.74.39.25.74.61.69,1.01.02-.21-.79-.76-.98-.89-.37-.26-.76-.49-1.17-.7-.37-.19-.71-.43-1.08-.62-.06-.03-.11-.05-.17-.06-.02,0-.04,0-.05,0-.04,0-.07-.01-.1-.01-.04,0-.09,0-.13.02-.01,0-.02,0-.03.01-.03,0-.06.02-.09.03-.01,0-.02.01-.03.02-.03.02-.06.04-.09.07,0,0,0,0,0,0-.03.03-.05.06-.07.1,0,.01,0,.02-.01.03-.01.03-.02.06-.03.08,0,.01,0,.02,0,.04,0,.04,0,.08,0,.13.03.17.11.32.16.48.22.65-.04,1.39-.65,1.85.41-.44.56-1.04.39-1.58-.05-.16-.13-.32-.16-.48-.06-.3.04-.6.08-.9.11-.67-.23-.92-.9-1.23-.66-.3-1.38-.49-2.13-.59.04.2.09.39.15.58.15.5.19,1.02.17,1.53-.02.53-.23.96-.32,1.47-.17.92.21,1.9,1.04,2.55.15.12.32.23.46.36.31.31.4.74.35,1.14-.05.4-.22.78-.39,1.15.13-.36.26-.75.12-1.1-.06-.16-.17-.3-.28-.44-.52-.67-1.09-1.31-1.7-1.92-.22-.22-.45-.45-.56-.72-.05-.12-.27-1.97-.32-1.97-.06,0-.12,0-.18,0-.04,0-.09,0-.13,0-.05,0-.1.01-.15.02-.04,0-.09,0-.13.02-.05,0-.1.02-.15.03-.04,0-.08.02-.12.03-.05.01-.09.03-.14.04-.04.01-.08.02-.11.04-.05.02-.09.04-.14.06-.03.02-.07.03-.1.05-.05.02-.09.05-.13.08-.03.02-.06.04-.09.05-.05.03-.09.07-.13.11-.02.02-.05.04-.07.05-.06.06-.12.12-.17.19-.47.62-.45,1.52-1.21,1.91.31-.53.63-1.1.52-1.68-.02-.12-.07-.24-.19-.31-.08-.04-.17-.05-.26-.05-.07,0-.14,0-.21.01-.04,0-.08,0-.12,0-.07,0-.14.02-.21.03-.07.01-.15.02-.22.04-.06,0-.11.02-.17.03-.1.02-.21.03-.31.03-.02,0-.04,0-.06,0-.03,0-.06,0-.09,0-.03,0-.07,0-.1,0-.04,0-.08-.01-.12-.02-.03,0-.07,0-.1-.01-.04,0-.08-.02-.12-.03-.03,0-.06-.01-.1-.02-.04-.01-.08-.02-.12-.04-.03,0-.06-.02-.09-.03-.04-.01-.08-.03-.12-.04-.03-.01-.06-.02-.09-.03-.04-.02-.08-.03-.12-.05-.03-.01-.05-.02-.08-.03-.04-.02-.09-.04-.13-.06-.02-.01-.05-.02-.07-.03-.07-.03-.13-.06-.19-.09.11.03.23.05.34.08.03,0,.07.01.1.02.08.02.16.03.25.05.04,0,.09.01.13.02.07.01.15.02.22.03.05,0,.1,0,.14,0,.09,0,.18.01.27,0,.42-.02.82-.13,1.23-.18.22-.03.43-.03.65-.07.43-.08.81-.29,1.18-.49.36-.2.74-.41.98-.71.34-.41.15-.7-.13-1.1-.49-.7-.87-1.44-1.16-2.21-.19-.51-.12-1.33-.67-1.71-.05-.04-.11-.06-.18-.08-.02,0-.03-.01-.05-.01-.06-.01-.12-.02-.18-.02,0,0-.02,0-.02,0-.08,0-.16.01-.24.03-.02,0-.04,0-.05.01-.08.02-.17.04-.25.07-.01,0-.03,0-.04.01-.08.03-.16.07-.24.1-.01,0-.02,0-.04.02-.09.04-.17.09-.26.13-.02.01-.04.02-.05.03-.08.05-.16.1-.24.15,0,0-.01,0-.02.01-.08.05-.15.09-.21.14l-.04.02c-.07.05-.13.09-.19.13-.01,0-.02.02-.03.03-.05.04-.11.08-.15.11-.54.43-1.5,1.15-1.17,1.84.16.33.68.51.74.86.01.08,0,.16-.02.25-.11.54-.39,1.06-.78,1.5.21-.3.3-.65.31-1,.02-.45-.13-.96-.61-1.18-.02-.01-.05-.02-.08-.03,0,0-.02,0-.03,0-.02,0-.05,0-.07,0-.35.04-.54.92-.64,1.14-.19.4-.41.8-.67,1.18-.37.54-.83,1.06-1.41,1.47-.51.36-1.18.7-1.87.74-.01,0-.03,0-.04,0h0s2.08-.11,3.76-4.55c.45-1.18,1.19-2.32,2.35-3.14.58-.41,1.9-.75,2.42-1.34h-.82c-.28.16-.61.3-.86.41-.39.17-.76.33-1.02.52m-.34,6.13c.46-.5.77-1.1.9-1.73.03-.12.05-.27.02-.43-.06-.38-.35-.61-.56-.79-.08-.07-.2-.16-.22-.21-.15-.3.67-.95.98-1.19l.05-.04c.69-.54,1.38-.89,1.75-.89.04,0,.1,0,.14.03.21.14.27.48.33.84.04.21.08.43.15.64.32.85.73,1.63,1.22,2.33.26.36.25.37.15.49-.19.23-.55.43-.84.59-.33.18-.67.37-1.03.44-.11.02-.24.03-.37.04-.08,0-.17.01-.25.02-.18.02-.36.05-.53.08-.23.04-.45.08-.66.09-.03,0-.07,0-.1,0-.4,0-.81-.1-1.21-.19-.03,0-.05,0-.08-.01.06-.03.11-.07.15-.11"/>
        <path class="cls-1" d="m169.97,224.84c-.06,0-.11,0-.17-.02.05.01.11.02.16.02h0"/>
        <path class="cls-1" d="m184.44,236.25c.06,0,.13,0,.19,0h-.01c-.06,0-.12,0-.18,0"/>
        <path class="cls-1" d="m186.64,231.29c-.02-.06-.05-.13-.07-.18l-.03-.07c-.1-.19-.21-.38-.32-.58-.27-.49-.55-.99-.74-1.52-.44-1.28-.85-2.59-1.24-3.85l-.38-1.21c-.25-.75-.72-1.13-1.38-1.13h0c-.44,0-.89,0-1.32.01-.6.02-1.07-.2-1.32-.61-.28-.44-.5-.91-.72-1.37-.09-.19-.18-.38-.27-.56-.04-.08-.03-.18.02-.26.05-.08.14-.12.24-.1.26.03.42.17.53.26.51.49.97.81,1.56.87.44.05.76.25,1.06.44l.09.06c.53.29,1.1.52,1.63.72,0,0,.07-.03.11-.04.13-.04.29-.09.46-.01l.1.04c.56.25,1.05.48,1.61.32-.4-1.35-1.29-2.27-2.69-2.79-.71-.26-1.55-.57-2.37-.96-1.16-.51-1.97-1.43-2.76-2.31l-.13-.14c-1.03-1.14-2.24-1.8-3.7-2.03-.19-.03-.39-.03-.61-.04-.36-.01-.72-.02-1.07-.14-1.7-.52-3.23-.81-4.67-.9-1.99-.14-4.61-.29-7.23-.29-2.46-.01-5.06-.11-7.5-1.18-1.17-.52-2.18-.67-3.18-.49-.12.03-.31-.03-.39-.13-.02-.03-.04-.06-.05-.09,0-.02-.01-.03-.01-.04-.03,0-.07.02-.1.03-.06.02-.13.04-.2.05-.33.05-.67.12-1.02.18-.38.07-.77.14-1.18.21-.09.01-.17-.02-.23-.08-.04-.05-.06-.11-.06-.17-.11.05-.21.09-.31.14-.05.02-.11.05-.16.09-.18.1-.41.23-.6.08-.11-.08-.13-.08-.32.07-.08.06-.18.13-.29.18-.07.02-.15.09-.23.15-.05.04-.09.07-.14.1-.14.11-.29.16-.45.14-.1-.02-.25-.08-.38-.27-.24-.34-.6-.45-1.02-.57-.06-.02-.12-.04-.18-.05.07.15.15.31.24.48.36.61.25.81-.32,1.16-.54.3-1.05.64-1.51,1.01-.19.14-.35.32-.52.51-.12.14-.26.28-.4.41-.26.23-.27.45-.22.82.03.22,0,.53-.17.73-.2.23-.41.43-.61.63-.13.13-.26.26-.38.38-.34.35-.63.73-.84,1.02-.02.03-.04.09-.04.13l.05.04c.18.15.35.3.53.43.07.05.11.13.1.21,0,.07-.04.14-.1.19-.03.04-.07.07-.11.09-.08.04-.18.02-.25-.03-.02,0-.07,0-.07.08,0,.12-.09.23-.21.25-.06,0-.09.05-.1.07-.03.11-.13.18-.24.18-.02,0-.07,0-.08-.01,0,0-.03,0-.04,0-.03.02-.05.04-.05.08,0,.12-.09.22-.21.25-.07.01-.07.05-.08.07-.01.08-.05.14-.12.18-.07.04-.15.05-.22.02h-.03s0,0-.01,0c-.02.02-.03.04-.03.06.02.06.02.14-.01.2-.04.08-.13.14-.22.14-.03,0-.07.04-.08.06,0,.02.01.06.01.09,0,.11-.07.21-.18.24-.02,0-.04.04-.04.06,0,.14-.11.25-.25.25-.02,0-.06.02-.06.06.04.06.06.14.04.21-.02.08-.09.15-.17.18-.04.01-.09.04-.09.08,0,.01,0,.03,0,.04,0,0,0,.02.02.03.08.1.08.24,0,.33-.02.02-.04.04-.04.06,0,0,.01.02.02.04l.03.05c.03.06.04.13.01.19s-.07.12-.13.15c0,.08,0,.08,0,.1.04.09.03.2-.03.27-.02.03-.02.04-.02.04,0,.03,0,.05.02.06.06.08.06.19,0,.27,0,.05.02.08.04.09.12.05.18.19.13.32-.05.13-.15.39-.31.65.1-.04.21-.12.3-.24.06-.07.15-.11.24-.1.13.02.59.19,1.22,1.52.08.19.35.28.62.23.15-.03.51-.16.52-.68,0-.13.06-.26.16-.36.32-.3,1.06-.29,1.2-.29.14,0,.24.12.24.25v1.57c-.01.08-.05.15-.11.2-.04.08-.09.25-.09.45h.01c.11,0,.2.07.24.16s0,.21-.07.28c-.16.14-.31.27-.46.42-.05.05-.1.12-.16.2-.2.24-.41.48-.67.68-.4.25-.85.47-1.33.63-.32.13-.54.35-.53.52.02.17.09.34.47.34.11,0,.21,0,.32.01.2.01.38.02.56,0,.58-.06.99-.42,1.43-.8.12-.1.24-.21.36-.3.13-.1.26-.21.39-.31.57-.46,1.15-.93,1.82-1.2.62-.29,1.27-.47,1.77-.6.02,0,.04,0,.06,0h.28c.03-.07.09-.12.17-.13.17-.04.35-.09.53-.14.02,0,.05,0,.07-.01h.51c.02-.09.09-.16.18-.19.55-.15,1.1-.29,1.65-.43.46-.12.93-.24,1.39-.36.47-.14.93-.3,1.38-.46l.28-.1c.06-.02.13-.08.21-.14.05-.04.11-.08.17-.12.1-.06.23-.05.32.04.02.02.05.05.07.08.21-.21.42-.41.63-.62l.29-.28c.07-.06.16-.09.25-.06.09.03.15.1.17.19.02.11.06.21.09.3.06.19.13.39.1.6-.13.9-.5,1.81-1.1,2.68-.51.74-1.06,1.48-1.59,2.19-.24.32-.47.64-.71.96-.4.55-.83,1.2-.83,1.99,0,.39-.1.82-.26,1.19,0,0,0,.02,0,.02-.1.23-.23.43-.36.64-.15.24-.29.46-.38.71-.07.18-.07.36-.06.58,0,.01,0,.03,0,.04h0c.24,0,.47.02.65-.05.48-.17.78-.5,1.01-.89.02-.04.04-.07.06-.11s.04-.07.06-.11c.1-.21.19-.43.27-.65l.04-.12s.01-.03.02-.05c.3-.83.61-1.69,1.2-2.42.17-.2.34-.4.51-.6.49-.58,1.01-1.19,1.53-1.75,1.24-1.38,2.53-2.89,3.58-4.58.11-.18.22-.35.34-.54l.18-.29c.05-.08.15-.13.24-.12.1.01.18.08.21.17.02.06.04.11.05.15.05-.21.04-.43.04-.67,0-.1,0-.21,0-.31,0-.08.04-.15.1-.19.06-.05.14-.07.21-.05.12.03.22.05.31.07l.09.02c1.54.23,2.82.27,4.04-.3.48-.22.96-.47,1.43-.71.34-.18.68-.36,1.03-.53,1.03-.51,2.04-.98,3.09-1.46.2-.09.59-.05.78.13.15.15.25.31.34.46.05.08.1.16.16.23.75,1.14,1.69,2.07,2.88,2.83,1.03.68,2.16,1.11,3.14,1.44.88.3,1.76.71,2.27,1.6.43.69.77,1.38.99,2.02.49,1.41.76,3.02-.88,4.22-.14.1-.26.31-.37.63-.04.12-.02.18-.01.18,0,0,.06.03.18.01l.23-.02c.39-.04.76-.08,1.08-.21,1.03-.45,1.48-1.12,1.45-2.15-.01-.28-.05-.57-.09-.87-.02-.14-.04-.28-.06-.43l-.04-.33c-.15-1.34-.31-2.73-.45-4.1-.09-.82-.48-1.28-1.22-1.45-.08-.02-.14-.07-.18-.15,0,0-.03-.07-.07-.17-.03-.09-.02-.18.04-.25.06-.07.15-.1.24-.08.35.07.67.14,1,.16,1.65.21,2.93.99,3.81,2.34,0,0,0,0,0,0,.7,1.1,1.15,2.29,1.35,3.55.12.79.51,1.39,1.19,1.83.23.13.82.14.92.06.15-.17.16-.37.02-.76m-42.96-5.4c-.49.18-.99.4-1.49.58,0,0-.01.02-.02.02l.02-1.97s-.04-.59.73-.62c.79-.05.79.67.79.67l-.03,1.33Zm-2.83-.82h.4l-.02,1.88c-.12.08-.23.12-.35.19-.01-.06-.02-.11-.07-.16l.03-1.91Zm4.13.22h0c-.13.06-.26.12-.37.19l.03-1.12h.35v.93Zm3.79-2.19s0,0-.01.01c-.3.21-.61.42-.91.63-.61.42-1.23.86-1.87,1.24-.04.02-.09.04-.13.04-.04,0-.08-.01-.12-.03-.08-.04-.13-.13-.13-.22v-1.27c.01-.12.1-.22.21-.24,0,0,.52-.12.73-.48.04-.06.09-.1.16-.12-.05-.05-.09-.11-.09-.19v-.02c0-.14.11-.25.25-.25.08,0,.16.04.21.1,0-.04,0-.08,0-.12,0,0-.02-.03-.04-.04-.02,0-.04,0-.05,0-.08.05-.17.06-.26.01-.08-.04-.13-.13-.13-.22,0-.02,0-.06,0-.07,0-.02,0-.03-.02-.05-.06-.07-.08-.16-.06-.24,0-.01-.02-.03-.04-.05-.05-.04-.09-.1-.1-.17,0-.03,0-.07,0-.1,0-.03-.02-.05-.04-.05-.12-.02-.21-.12-.21-.25,0-.04,0-.07.02-.1-.02-.03-.05-.05-.09-.05-.13,0-.24-.12-.24-.25,0-.01,0-.07-.04-.08-.1-.03-.17-.13-.17-.24,0-.03,0-.09-.07-.1-.04,0-.08,0-.11-.02-.08-.04-.15-.11-.16-.2,0,0-.01-.08-.08-.08-.07.06-.18.07-.26.03-.08-.04-.15-.12-.16-.21,0-.04-.03-.07-.05-.08-.05.02-.11.02-.17,0-.09-.03-.16-.11-.17-.2,0-.04-.04-.07-.09-.07h-.04s-.05,0-.07,0c-.12,0-.22-.08-.24-.2-.02-.03-.04-.05-.05-.07-.03.03-.07.05-.12.06h0c-.06.03-.13.04-.19.02-.05-.01-.09-.04-.12-.08-.03-.03-.08-.07-.11-.15-.03-.09-.01-.19.05-.26.06-.07.16-.1.25-.07.07.02.14.03.22.09.03.02.05.05.07.07.06-.05.15-.08.23-.05.29.07.57.17.84.25l.18.06c.25.08.51.15.77.23.63.18,1.27.38,1.91.61.81.31,1.16.84,1.05,1.58-.03.19,0,.4.05.63.02.13.05.26.06.39.01.19-.05.53-.26.69"/>
        <path class="cls-1" d="m143.66,218.87s.07-.02.07-.02c-.05-.04-.08-.04-.13-.05.02.05.06.05.06.08"/>
        <path class="cls-1" d="m199.91,234.65c-1.97,0-1.86,0-5.09,0-.93,0-1.97-.35-3.1-.35-.95,0-1.96.36-3.03.36-.76,0-1.56,0-2.38,0-1.02,0-2.08-.35-3.17-.35-1.48,0-3.02.36-4.61.36-.29.07-.58.1-.87.13l-.17.02c.17.18.35.37.51.56.11.12.21.25.3.38.31.42.52.68.86.68.04,0,.09,0,.13-.01.35-.05.69-.21,1.05-.37.35-.16.72-.33,1.14-.42.57-.12,1.15-.19,1.74-.19.97,0,1.92.17,2.82.51,0,0,.44.25.28.7-.16.48-.63.24-.63.24-.25-.09-.62-.14-1.1-.14-.41,0-.82.03-1.18.07-.8.07-1.56.25-2.25.52l-.16.06c-.68.26-1.08.47-1.19.61.05.06.15.15.39.27.61.28,1.33.39,2.1.5,1,.15,2.03.3,2.86.88.91.64,1.27,1.61,1.46,2.28.06.22-.03.45-.23.57-.08.05-.17.07-.26.07-.13,0-.26-.05-.35-.14l-.79-.78-.37-.36c-.34-.34-.69-.68-1.12-.92-.31-.17-.65-.26-.96-.26h-.02s.06.1.11.16c.08.09.18.17.28.27.18.16.39.35.55.59.31.48.34,1.08.08,1.58-.09.17-.26.27-.44.27,0,0-.02,0-.02,0-.2,0-.37-.13-.44-.31-.3-.75-1.09-1.42-1.72-1.95-.45-.38-.96-.81-1.56-1.05-.18-.07-.37-.13-.57-.19-.12-.04-.24-.07-.35-.11-.59-.19-1.14-.46-1.65-.79-.25-.17-.49-.35-.7-.54-.1-.09-.18-.19-.26-.29-.05-.06-.11-.13-.16-.19-.22.27-.45,1.16-.39,1.43.07.18.27.38.45.54.21.19.45.37.69.54.07.05.14.1.21.14.38.26.78.53,1.06.92.24.34.34.74.27,1.12-.06.33-.24.61-.51.81-.09.06-.19.09-.29.09-.15,0-.29-.07-.39-.19-.18-.23-.24-.49-.27-.68,0-.03-.01-.07-.02-.1-.16-.7-.87-1.31-1.73-1.54.05.19.17.42.32.71.29.54.65,1.22.37,1.94-.1.25-.26.45-.4.64l-.08.1c-.1.13-.25.2-.4.2-.08,0-.16-.02-.23-.05-.22-.11-.32-.36-.25-.59.09-.29.11-.56.05-.82-.1-.46-.35-.89-.62-1.35-.4-.67-.86-1.44-.77-2.39.04-.47.26-.94.45-1.35.07-.14.13-.27.18-.41.04-.1.08-.19.11-.29.1-.26.21-.54.35-.8.04-.07.05-.13.02-.21-.13-.43-.93-.93-1.53-1.26-1.06,0-2.12-.35-3.2-.35-1.4,0-2.81.35-4.22.35-.2.77-.33,1.55-.36,2.31-.02.53.15.78,1.16,1.11,1.04.34,1.94.83,2.67,1.45.36.3.67.64.94,1,.11.14.19.29.28.43.13.21.25.4.4.54.17.16.41.29.66.43.15.08.3.16.44.26.65.42.98.94.92,1.49-.03.26-.25.45-.5.45-.02,0-.04,0-.05,0-.21-.02-.38-.17-.43-.37-.06-.07-.24-.23-.72-.57l-.06-.04c-.33-.23-.68-.44-1.11-.66-.2-.1-.39-.21-.57-.32-.18-.11-.34-.2-.51-.29-.03-.02-.06-.02-.08-.03.01.05.04.11.06.17.02.06.05.12.07.18.28.85-.05,1.82-.83,2.41-.09.07-.19.1-.3.1-.14,0-.27-.06-.37-.17-.17-.19-.17-.49,0-.68.29-.32.4-.72.28-1.09-.02-.05-.04-.1-.06-.15-.04-.11-.09-.24-.12-.38-.06-.33,0-.62.04-.89.01-.06.02-.13.03-.19.05-.28.06-.39-.61-.69-.38-.17-.79-.31-1.24-.41.11.45.16.95.13,1.51-.02.38-.11.71-.2,1.02-.05.18-.1.34-.13.52-.14.75.18,1.54.85,2.06.04.03.08.06.13.1.12.09.26.19.38.31.39.39.56.94.49,1.55-.06.48-.25.92-.43,1.3-.08.18-.27.29-.46.29-.06,0-.13-.01-.19-.04-.25-.1-.38-.38-.29-.63.11-.31.19-.58.12-.76-.03-.09-.11-.19-.2-.31-.51-.65-1.07-1.28-1.66-1.87l-.03-.03c-.24-.24-.5-.5-.64-.86-.04-.1-.06-.22-.18-1.02-.03-.19-.06-.42-.09-.62-.5.06-.9.26-1.13.56-.14.18-.23.42-.33.67-.19.47-.42,1.06-1.06,1.39-.07.04-.15.06-.23.06-.13,0-.27-.05-.36-.16-.15-.16-.18-.4-.07-.6.28-.48.51-.92.47-1.3h-.01c-.17,0-.35.03-.54.07-.21.04-.42.08-.65.08-.03,0-.05,0-.08,0-.72,0-1.34-.3-1.85-.54-.23-.11-.34-.38-.26-.62.05-.13.14-.23.25-.28-.1,0-.19-.04-.28-.11-.21-.17-.25-.46-.1-.68.13-.19.21-.43.22-.73,0-.14,0-.43-.18-.61-.07.15-.14.36-.17.46-.04.12-.07.22-.11.3-.22.46-.45.87-.71,1.24-.46.66-.96,1.18-1.53,1.59-.5.35-1.27.78-2.14.83-.02,0-.04,0-.07,0h0c-.27,0-.5-.22-.5-.49,0-.27.2-.5.47-.51.02,0,1.82-.23,3.33-4.22.54-1.44,1.4-2.57,2.53-3.37.27-.19.64-.35,1.02-.52.25-.11.59-.26.86-.41-1.49,0-2.98-.35-4.44-.35-.84,0-1.67.35-2.5.35-.84.74-1.52,1.7-1.21,2.66.06.2.14.4.23.61.19.48.39.97.4,1.58.02.99-.4,1.93-1.18,2.65-.12.11-.26.23-.4.33-.09.07-.2.1-.3.1-.13,0-.26-.05-.36-.15-.18-.18-.18-.47-.02-.67.57-.68.86-1.61.75-2.42-.08-.61-.34-1.25-.63-1.25-.02,0-.04,0-.06,0-.34.05-.68.39-.97.69-.09.09-.18.18-.27.26-.07.07-.12.14-.19.25-.04.06-.07.12-.12.18-.11.16-.25.29-.38.39-.08.07-.16.15-.21.21,0,.06.04.16.06.23.03.09.06.19.07.29.06.34.08.67.06,1-.05.85-.36,1.67-.9,2.39,0,0-.28.4-.79.13-.31-.16-.01-.74-.01-.74.14-.18.2-.56.25-.84.01-.07.02-.14.04-.2.18-.93.08-1.34-.37-1.54-.04-.02-.08-.02-.12-.02-.16,0-.39.13-.6.25-.1.06-.2.11-.29.16-.53.27-1.1.54-1.68.79-1.46.64-2.68,1.09-3.82,1.42-.05.01-.09.02-.14.02-.21,0-.4-.13-.47-.34-.09-.25.04-.53.29-.63.97-.39,2.01-.89,3.26-1.59.96-.53,1.87-1.08,2.72-1.64.22-.14.51-.25.79-.35.25-.09.59-.21.69-.31.26-.24.44-.46.66-.71.07-.09.15-.18.23-.27.02-.02.04-.05.07-.09.1-.12.2-.24.31-.35-.08,0-.16,0-.24,0-.15,0-.32.03-.42-.08-.05-.05-.07-.12-.07-.18,0-.09,0-.18,0-.27,0-.25-.01-.5.1-.77.11-.29.27-.54.42-.79.08-.13.16-.26.23-.39h-4.08c-1.57,0-3.07-.71-4.47-.71-2.11,0-4,.7-5.62.7-1.74,0-3.16-.36-4.18-.36-1.14,0-1.78.35-1.81.34,0,0,13.84,19.89,36.78,19.89,20.16,0,35.41-19.89,35.41-19.89"/>
      </g>
    </g>
  </g>
</svg>